<?xml version="1.0" encoding="UTF-8" standalone="no"?>
<!-- Created with Inkscape (http://www.inkscape.org/) -->

<svg
   version="1.1"
   id="svg1"
   width="880"
   height="880"
   viewBox="0 0 880 880"
   sodipodi:docname="beach-loungers-publicdomainvectors.org.svg"
   inkscape:version="1.3.2 (091e20e, 2023-11-25, custom)"
   xmlns:inkscape="http://www.inkscape.org/namespaces/inkscape"
   xmlns:sodipodi="http://sodipodi.sourceforge.net/DTD/sodipodi-0.dtd"
   xmlns="http://www.w3.org/2000/svg"
   xmlns:svg="http://www.w3.org/2000/svg">
  <defs
     id="defs1">
    <clipPath
       clipPathUnits="userSpaceOnUse"
       id="clipPath5">
      <path
         d="M 0,660 H 660 V 0 H 0 Z"
         transform="translate(-38.471201,-263.74411)"
         id="path5" />
    </clipPath>
    <clipPath
       clipPathUnits="userSpaceOnUse"
       id="clipPath7">
      <path
         d="M 0,660 H 660 V 0 H 0 Z"
         id="path7" />
    </clipPath>
    <clipPath
       clipPathUnits="userSpaceOnUse"
       id="clipPath9">
      <path
         d="M 0,660 H 660 V 0 H 0 Z"
         id="path9" />
    </clipPath>
    <clipPath
       clipPathUnits="userSpaceOnUse"
       id="clipPath11">
      <path
         d="M 0,660 H 660 V 0 H 0 Z"
         transform="translate(-661.43362,-349.43021)"
         id="path11" />
    </clipPath>
    <clipPath
       clipPathUnits="userSpaceOnUse"
       id="clipPath13">
      <path
         d="M 0,660 H 660 V 0 H 0 Z"
         transform="translate(-330.71731,-159.3252)"
         id="path13" />
    </clipPath>
    <clipPath
       clipPathUnits="userSpaceOnUse"
       id="clipPath15">
      <path
         d="M 0,660 H 660 V 0 H 0 Z"
         transform="translate(-562.49512,-162.1357)"
         id="path15" />
    </clipPath>
    <clipPath
       clipPathUnits="userSpaceOnUse"
       id="clipPath17">
      <path
         d="M 0,660 H 660 V 0 H 0 Z"
         transform="translate(-120.9346,-397.05471)"
         id="path17" />
    </clipPath>
    <clipPath
       clipPathUnits="userSpaceOnUse"
       id="clipPath19">
      <path
         d="M 0,660 H 660 V 0 H 0 Z"
         transform="translate(-109.4565,-162.1357)"
         id="path19" />
    </clipPath>
    <clipPath
       clipPathUnits="userSpaceOnUse"
       id="clipPath21">
      <path
         d="M 0,660 H 660 V 0 H 0 Z"
         transform="translate(-120.9346,-397.05471)"
         id="path21" />
    </clipPath>
    <clipPath
       clipPathUnits="userSpaceOnUse"
       id="clipPath23">
      <path
         d="M 0,660 H 660 V 0 H 0 Z"
         transform="translate(-113.52441,-372.53661)"
         id="path23" />
    </clipPath>
    <clipPath
       clipPathUnits="userSpaceOnUse"
       id="clipPath25">
      <path
         d="M 0,660 H 660 V 0 H 0 Z"
         transform="translate(-202.00591,-376.36471)"
         id="path25" />
    </clipPath>
    <clipPath
       clipPathUnits="userSpaceOnUse"
       id="clipPath27">
      <path
         d="M 0,660 H 660 V 0 H 0 Z"
         transform="translate(-202.00591,-376.36471)"
         id="path27" />
    </clipPath>
    <clipPath
       clipPathUnits="userSpaceOnUse"
       id="clipPath29">
      <path
         d="M 0,660 H 660 V 0 H 0 Z"
         transform="translate(-138.835,-263.57521)"
         id="path29" />
    </clipPath>
    <clipPath
       clipPathUnits="userSpaceOnUse"
       id="clipPath31">
      <path
         d="M 0,660 H 660 V 0 H 0 Z"
         transform="translate(-67.610402,-266.71971)"
         id="path31" />
    </clipPath>
    <clipPath
       clipPathUnits="userSpaceOnUse"
       id="clipPath33">
      <path
         d="M 0,660 H 660 V 0 H 0 Z"
         transform="translate(-259.1689,-207.0439)"
         id="path33" />
    </clipPath>
    <clipPath
       clipPathUnits="userSpaceOnUse"
       id="clipPath35">
      <path
         d="M 0,660 H 660 V 0 H 0 Z"
         transform="translate(-66.001001,-263.57521)"
         id="path35" />
    </clipPath>
    <clipPath
       clipPathUnits="userSpaceOnUse"
       id="clipPath37">
      <path
         d="M 0,660 H 660 V 0 H 0 Z"
         transform="translate(-522.59962,-263.57521)"
         id="path37" />
    </clipPath>
    <clipPath
       clipPathUnits="userSpaceOnUse"
       id="clipPath39">
      <path
         d="M 0,660 H 660 V 0 H 0 Z"
         transform="translate(-593.82421,-266.71971)"
         id="path39" />
    </clipPath>
    <clipPath
       clipPathUnits="userSpaceOnUse"
       id="clipPath41">
      <path
         d="M 0,660 H 660 V 0 H 0 Z"
         transform="translate(-402.26561,-207.0439)"
         id="path41" />
    </clipPath>
    <clipPath
       clipPathUnits="userSpaceOnUse"
       id="clipPath43">
      <path
         d="M 0,660 H 660 V 0 H 0 Z"
         transform="translate(-595.43261,-263.57521)"
         id="path43" />
    </clipPath>
    <clipPath
       clipPathUnits="userSpaceOnUse"
       id="clipPath45">
      <path
         d="M 0,660 H 660 V 0 H 0 Z"
         transform="translate(-330.71731,-390.62301)"
         id="path45" />
    </clipPath>
    <clipPath
       clipPathUnits="userSpaceOnUse"
       id="clipPath47">
      <path
         d="M 0,660 H 660 V 0 H 0 Z"
         transform="translate(-330.71731,-598.99321)"
         id="path47" />
    </clipPath>
    <clipPath
       clipPathUnits="userSpaceOnUse"
       id="clipPath49">
      <path
         d="M 0,660 H 660 V 0 H 0 Z"
         transform="translate(-330.71731,-457.68211)"
         id="path49" />
    </clipPath>
    <clipPath
       clipPathUnits="userSpaceOnUse"
       id="clipPath51">
      <path
         d="M 0,660 H 660 V 0 H 0 Z"
         id="path51" />
    </clipPath>
    <clipPath
       clipPathUnits="userSpaceOnUse"
       id="clipPath53">
      <path
         d="M 0,660 H 660 V 0 H 0 Z"
         transform="translate(-551.01661,-397.05471)"
         id="path53" />
    </clipPath>
    <clipPath
       clipPathUnits="userSpaceOnUse"
       id="clipPath55">
      <path
         d="M 0,660 H 660 V 0 H 0 Z"
         transform="translate(-551.01661,-397.05471)"
         id="path55" />
    </clipPath>
    <clipPath
       clipPathUnits="userSpaceOnUse"
       id="clipPath57">
      <path
         d="M 0,660 H 660 V 0 H 0 Z"
         transform="translate(-558.42682,-372.53661)"
         id="path57" />
    </clipPath>
    <clipPath
       clipPathUnits="userSpaceOnUse"
       id="clipPath59">
      <path
         d="M 0,660 H 660 V 0 H 0 Z"
         transform="translate(-469.94631,-376.36471)"
         id="path59" />
    </clipPath>
    <clipPath
       clipPathUnits="userSpaceOnUse"
       id="clipPath61">
      <path
         d="M 0,660 H 660 V 0 H 0 Z"
         transform="translate(-469.94631,-376.36471)"
         id="path61" />
    </clipPath>
    <clipPath
       clipPathUnits="userSpaceOnUse"
       id="clipPath63">
      <path
         d="M 0,660 H 660 V 0 H 0 Z"
         transform="translate(-72.119602,-570.68992)"
         id="path63" />
    </clipPath>
    <clipPath
       clipPathUnits="userSpaceOnUse"
       id="clipPath65">
      <path
         d="M 0,660 H 660 V 0 H 0 Z"
         transform="translate(-504.85351,-502.00882)"
         id="path65" />
    </clipPath>
  </defs>
  <sodipodi:namedview
     id="namedview1"
     pagecolor="#ffffff"
     bordercolor="#000000"
     borderopacity="0.25"
     inkscape:showpageshadow="2"
     inkscape:pageopacity="0.0"
     inkscape:pagecheckerboard="0"
     inkscape:deskcolor="#d1d1d1"
     inkscape:zoom="0.67272727"
     inkscape:cx="439.25676"
     inkscape:cy="440"
     inkscape:window-width="1440"
     inkscape:window-height="830"
     inkscape:window-x="-6"
     inkscape:window-y="-6"
     inkscape:window-maximized="1"
     inkscape:current-layer="g1">
    <inkscape:page
       x="0"
       y="0"
       inkscape:label="1"
       id="page1"
       width="880"
       height="880"
       margin="0"
       bleed="0" />
  </sodipodi:namedview>
  <g
     id="g1"
     inkscape:groupmode="layer"
     inkscape:label="1">
    <g
       id="group-MC0">
      <path
         id="path2"
         d="M 0,0 H 660 V 660 H 0 Z"
         style="fill:#e4b327;fill-opacity:1;fill-rule:nonzero;stroke:none"
         transform="matrix(1.3333333,0,0,-1.3333333,0,880)" />
      <path
         id="path3"
         d="m 0,263.744 h 660 v 83.742 H 0 Z"
         style="fill:#b4891c;fill-opacity:1;fill-rule:nonzero;stroke:none"
         transform="matrix(1.3333333,0,0,-1.3333333,0,880)" />
      <path
         id="path4"
         d="M 0,0 H 584.492 C 570.537,41.164 478.8,74.556 358.973,83.743 H 225.519 C 105.692,74.556 13.954,41.164 0,0"
         style="fill:#ca9d18;fill-opacity:1;fill-rule:evenodd;stroke:none"
         transform="matrix(1.3333333,0,0,-1.3333333,51.294933,528.3412)"
         clip-path="url(#clipPath5)" />
      <path
         id="path6"
         d="m 0,263.744 h 661.434 v 9.257 H 0 Z"
         style="fill:#efc542;fill-opacity:1;fill-rule:evenodd;stroke:none"
         transform="matrix(1.3333333,0,0,-1.3333333,0,880)"
         clip-path="url(#clipPath7)" />
      <path
         id="path8"
         d="M 0,347.487 H 661.434 V 660 H 0 Z"
         style="fill:#efc542;fill-opacity:1;fill-rule:evenodd;stroke:none"
         transform="matrix(1.3333333,0,0,-1.3333333,0,880)"
         clip-path="url(#clipPath9)" />
      <path
         id="path10"
         d="m 0,0 v -1.943 h -63.906 -545.515 -52.013 v 14.58 39.286 c 1.108,0.123 2.232,0.19 3.372,0.19 11.905,0 22.194,-6.915 27.071,-16.948 1.581,0.351 3.221,0.538 4.907,0.538 12.432,0 22.511,-10.079 22.511,-22.51 0,-0.994 -0.064,-1.973 -0.19,-2.932 4.791,-0.823 9.156,-2.893 12.75,-5.863 4.703,5.874 11.934,9.638 20.045,9.638 5.814,0 11.176,-1.935 15.48,-5.194 7.015,8.805 17.828,14.45 29.962,14.45 15.208,0 28.346,-8.867 34.525,-21.713 5.902,4.803 13.432,7.684 21.635,7.684 6.827,0 13.188,-1.995 18.532,-5.433 6.079,11.664 18.278,19.629 32.34,19.629 13.885,0 25.954,-7.766 32.107,-19.19 8.946,11.087 22.644,18.182 38.001,18.182 16.788,0 31.595,-8.478 40.379,-21.384 7.636,9.449 19.317,15.493 32.413,15.493 12.699,0 24.069,-5.684 31.709,-14.645 9.504,7.999 21.772,12.822 35.167,12.822 12.139,0 23.354,-3.96 32.423,-10.657 6.996,7.116 16.73,11.529 27.498,11.529 6.251,0 12.154,-1.489 17.378,-4.131 8.952,8.398 20.994,13.542 34.238,13.542 10.895,0 20.976,-3.481 29.191,-9.391 1.936,10.465 11.108,18.391 22.133,18.391 1.685,0 3.329,-0.187 4.907,-0.537 4.879,10.032 15.168,16.947 27.072,16.947 5.005,0 9.725,-1.224 13.878,-3.388 z"
         style="fill:#faf4de;fill-opacity:1;fill-rule:evenodd;stroke:none"
         transform="matrix(1.3333333,0,0,-1.3333333,881.91147,414.09307)"
         clip-path="url(#clipPath11)" />
      <path
         id="path12"
         d="M 0,0 C 164.54,0 298.74,1.512 298.74,3.366 298.74,5.22 164.54,6.731 0,6.731 -164.54,6.731 -298.739,5.22 -298.739,3.366 -298.739,1.512 -164.54,0 0,0"
         style="fill:#ad831d;fill-opacity:1;fill-rule:evenodd;stroke:none"
         transform="matrix(1.3333333,0,0,-1.3333333,440.9564,667.5664)"
         clip-path="url(#clipPath13)" />
      <path
         id="path14"
         d="M 0,0 -92.986,215.245 -13.886,1.498 Z"
         style="fill:#ad831d;fill-opacity:1;fill-rule:evenodd;stroke:none"
         transform="matrix(1.3333333,0,0,-1.3333333,749.99347,663.81907)"
         clip-path="url(#clipPath15)" />
      <path
         id="path16"
         d="m 0,0 25.455,1.579 25.456,1.579 32.293,-10.025 32.292,-10.027 20.215,-15.756 20.214,-15.758 -3.705,-12.259 -3.705,-12.259 -25.456,-1.579 -25.454,-1.579 -32.294,10.026 -32.293,10.025 -20.213,15.758 -20.215,15.757 3.705,12.259 z"
         style="fill:#faf4de;fill-opacity:1;fill-rule:evenodd;stroke:none"
         transform="matrix(1.3333333,0,0,-1.3333333,161.24613,350.59373)"
         clip-path="url(#clipPath17)" />
      <path
         id="path18"
         d="M 0,0 92.988,215.245 13.885,1.498 Z"
         style="fill:#ad831d;fill-opacity:1;fill-rule:evenodd;stroke:none"
         transform="matrix(1.3333333,0,0,-1.3333333,145.942,663.81907)"
         clip-path="url(#clipPath19)" />
      <path
         id="path20"
         d="M 0,0 81.071,-20.69 50.911,3.158 Z"
         style="fill:#f06c2c;fill-opacity:1;fill-rule:evenodd;stroke:none"
         transform="matrix(1.3333333,0,0,-1.3333333,161.24613,350.59373)"
         clip-path="url(#clipPath21)" />
      <path
         id="path22"
         d="M 0,0 88.481,3.828 40.429,-31.515 Z"
         style="fill:#f06c2c;fill-opacity:1;fill-rule:evenodd;stroke:none"
         transform="matrix(1.3333333,0,0,-1.3333333,151.36587,383.28453)"
         clip-path="url(#clipPath23)" />
      <path
         id="path24"
         d="m 0,0 16.534,-55.394 50.91,3.158 z"
         style="fill:#f06c2c;fill-opacity:1;fill-rule:evenodd;stroke:none"
         transform="matrix(1.3333333,0,0,-1.3333333,269.3412,378.1804)"
         clip-path="url(#clipPath25)" />
      <path
         id="path26"
         d="m 0,0 0.028,-0.094 34.396,3.89 40.429,-31.514 z"
         style="fill:#f06c2c;fill-opacity:1;fill-rule:evenodd;stroke:none"
         transform="matrix(1.3333333,0,0,-1.3333333,269.3412,378.1804)"
         clip-path="url(#clipPath27)" />
      <path
         id="path28"
         d="M 0,0 129.776,-101.306 70.267,-61.661 1.987,-100.974 65.88,-58.267 -6.621,-4.635 Z"
         style="fill:#ad831d;fill-opacity:1;fill-rule:evenodd;stroke:none"
         transform="matrix(1.3333333,0,0,-1.3333333,185.11333,528.5664)"
         clip-path="url(#clipPath29)" />
      <path
         id="path30"
         d="m 0,0 c 8.406,-40.72 45.346,-74.488 77.561,-74.488 h 76.806 c -38.403,0 -70.18,40.61 -81.722,73.827 z"
         style="fill:#faf4de;fill-opacity:1;fill-rule:evenodd;stroke:none"
         transform="matrix(1.3333333,0,0,-1.3333333,90.1472,524.37373)"
         clip-path="url(#clipPath31)" />
      <path
         id="path32"
         d="m 0,0 c -12.379,-9.282 -26.189,-14.813 -39.224,-14.813 h -76.807 c 14.514,0 28.08,5.803 39.967,14.813 z"
         style="fill:#efdea7;fill-opacity:1;fill-rule:evenodd;stroke:none"
         transform="matrix(1.3333333,0,0,-1.3333333,345.55853,603.94147)"
         clip-path="url(#clipPath33)" />
      <path
         id="path34"
         d="M 0,0 129.776,-101.306 70.268,-61.661 1.987,-100.974 65.881,-58.267 -6.621,-4.635 Z"
         style="fill:#ad831d;fill-opacity:1;fill-rule:evenodd;stroke:none"
         transform="matrix(1.3333333,0,0,-1.3333333,88.001333,528.5664)"
         clip-path="url(#clipPath35)" />
      <path
         id="path36"
         d="m 0,0 -129.776,-101.306 59.507,39.645 68.283,-39.313 -63.895,42.707 72.501,53.632 z"
         style="fill:#ad831d;fill-opacity:1;fill-rule:evenodd;stroke:none"
         transform="matrix(1.3333333,0,0,-1.3333333,696.79947,528.5664)"
         clip-path="url(#clipPath37)" />
      <path
         id="path38"
         d="m 0,0 c -8.407,-40.72 -45.347,-74.488 -77.56,-74.488 h -76.808 c 38.404,0 70.181,40.61 81.722,73.827 z"
         style="fill:#faf4de;fill-opacity:1;fill-rule:evenodd;stroke:none"
         transform="matrix(1.3333333,0,0,-1.3333333,791.7656,524.37373)"
         clip-path="url(#clipPath39)" />
      <path
         id="path40"
         d="M 0,0 C 12.379,-9.282 26.189,-14.813 39.225,-14.813 H 116.03 C 101.518,-14.813 87.949,-9.01 76.063,0 Z"
         style="fill:#efdea7;fill-opacity:1;fill-rule:evenodd;stroke:none"
         transform="matrix(1.3333333,0,0,-1.3333333,536.35413,603.94147)"
         clip-path="url(#clipPath41)" />
      <path
         id="path42"
         d="m 0,0 -129.775,-101.306 59.508,39.645 68.281,-39.313 -63.895,42.707 72.501,53.632 z"
         style="fill:#ad831d;fill-opacity:1;fill-rule:evenodd;stroke:none"
         transform="matrix(1.3333333,0,0,-1.3333333,793.91013,528.5664)"
         clip-path="url(#clipPath43)" />
      <path
         id="path44"
         d="M 0,0 C 66.617,0 120.95,54.333 120.95,120.95 120.95,187.567 66.617,241.9 0,241.9 -66.617,241.9 -120.949,187.567 -120.949,120.95 -120.949,54.333 -66.617,0 0,0"
         style="fill:#f3d570;fill-opacity:1;fill-rule:evenodd;stroke:none"
         transform="matrix(1.3333333,0,0,-1.3333333,440.9564,359.16933)"
         clip-path="url(#clipPath45)" />
      <path
         id="path46"
         d="m 0,0 c 48.281,0 87.42,-39.139 87.42,-87.42 0,-48.281 -39.139,-87.42 -87.42,-87.42 -48.28,0 -87.42,39.139 -87.42,87.42 C -87.42,-39.139 -48.28,0 0,0"
         style="fill:#f7e4a6;fill-opacity:1;fill-rule:evenodd;stroke:none"
         transform="matrix(1.3333333,0,0,-1.3333333,440.9564,81.3424)"
         clip-path="url(#clipPath47)" />
      <path
         id="path48"
         d="m 0,0 c 29.682,0 53.891,24.208 53.891,53.891 0,29.682 -24.209,53.891 -53.891,53.891 -29.682,0 -53.891,-24.209 -53.891,-53.891 C -53.891,24.208 -29.682,0 0,0"
         style="fill:#faf4de;fill-opacity:1;fill-rule:evenodd;stroke:none"
         transform="matrix(1.3333333,0,0,-1.3333333,440.9564,269.7572)"
         clip-path="url(#clipPath49)" />
      <path
         id="path50"
         d="M 0,-1.435 H 661.434 V 85.761 H 0 Z"
         style="fill:#dfac1e;fill-opacity:1;fill-rule:evenodd;stroke:none"
         transform="matrix(1.3333333,0,0,-1.3333333,0,880)"
         clip-path="url(#clipPath51)" />
      <path
         id="path52"
         d="m 0,0 -25.456,1.579 -25.454,1.579 -32.294,-10.025 -32.291,-10.027 -20.215,-15.756 -20.215,-15.758 3.706,-12.259 3.705,-12.259 25.455,-1.579 25.454,-1.579 32.294,10.026 32.294,10.025 20.213,15.758 20.214,15.757 -3.703,12.259 z"
         style="fill:#faf4de;fill-opacity:1;fill-rule:evenodd;stroke:none"
         transform="matrix(1.3333333,0,0,-1.3333333,734.6888,350.59373)"
         clip-path="url(#clipPath53)" />
      <path
         id="path54"
         d="M 0,0 -81.07,-20.69 -50.91,3.158 Z"
         style="fill:#f06c2c;fill-opacity:1;fill-rule:evenodd;stroke:none"
         transform="matrix(1.3333333,0,0,-1.3333333,734.6888,350.59373)"
         clip-path="url(#clipPath55)" />
      <path
         id="path56"
         d="m 0,0 -88.48,3.828 48.053,-35.343 z"
         style="fill:#f06c2c;fill-opacity:1;fill-rule:evenodd;stroke:none"
         transform="matrix(1.3333333,0,0,-1.3333333,744.56907,383.28453)"
         clip-path="url(#clipPath57)" />
      <path
         id="path58"
         d="m 0,0 -16.534,-55.394 -50.909,3.158 z"
         style="fill:#f06c2c;fill-opacity:1;fill-rule:evenodd;stroke:none"
         transform="matrix(1.3333333,0,0,-1.3333333,626.59507,378.1804)"
         clip-path="url(#clipPath59)" />
      <path
         id="path60"
         d="m 0,0 -0.029,-0.094 -34.396,3.89 -40.429,-31.514 z"
         style="fill:#f06c2c;fill-opacity:1;fill-rule:evenodd;stroke:none"
         transform="matrix(1.3333333,0,0,-1.3333333,626.59507,378.1804)"
         clip-path="url(#clipPath61)" />
      <path
         id="path62"
         d="m 0,0 c 0.683,0 1.343,-0.102 1.964,-0.292 1.941,2.543 5.003,4.184 8.449,4.184 3.134,0 5.952,-1.358 7.896,-3.518 1.468,1.087 3.284,1.729 5.251,1.729 3.18,0 5.968,-1.68 7.523,-4.201 1.176,1.16 2.791,1.876 4.572,1.876 3.196,0 5.854,-2.302 6.405,-5.34 L 52.532,-6.732 42.06,-7.901 c -0.551,-3.038 -3.209,-5.34 -6.405,-5.34 -1.781,0 -3.396,0.716 -4.572,1.876 -1.555,-2.521 -4.343,-4.201 -7.523,-4.201 -1.967,0 -3.783,0.642 -5.251,1.729 -1.944,-2.16 -4.762,-3.518 -7.896,-3.518 -3.446,0 -6.508,1.641 -8.449,4.184 -0.621,-0.19 -1.281,-0.292 -1.964,-0.292 -3.319,0 -6.077,2.401 -6.63,5.562 l -10.468,1.169 10.468,1.17 C -6.077,-2.402 -3.319,0 0,0"
         style="fill:#faf4de;fill-opacity:1;fill-rule:evenodd;stroke:none"
         transform="matrix(1.3333333,0,0,-1.3333333,96.159467,119.08013)"
         clip-path="url(#clipPath63)" />
      <path
         id="path64"
         d="m 0,0 c 1.211,0 2.346,-0.319 3.326,-0.877 2.216,4.774 7.051,8.087 12.661,8.087 5.087,0 9.538,-2.725 11.974,-6.793 1.43,1.02 3.18,1.62 5.07,1.62 1.104,0 2.161,-0.206 3.134,-0.58 2.759,4.485 7.708,7.476 13.359,7.476 4.611,0 8.755,-1.991 11.623,-5.16 1.386,0.597 2.916,0.929 4.52,0.929 5.942,0 10.823,-4.529 11.388,-10.322 L 87.059,-6.739 77.055,-7.857 C 76.49,-13.651 71.609,-18.18 65.667,-18.18 c -1.604,0 -3.134,0.332 -4.52,0.929 -2.868,-3.169 -7.012,-5.16 -11.623,-5.16 -5.675,0 -10.647,3.019 -13.397,7.539 -0.962,-0.364 -2.006,-0.565 -3.096,-0.565 -1.877,0 -3.616,0.591 -5.038,1.598 -2.429,-4.1 -6.897,-6.848 -12.006,-6.848 -5.61,0 -10.445,3.312 -12.661,8.086 -0.98,-0.558 -2.115,-0.877 -3.326,-0.877 -3.339,0 -6.111,2.429 -6.645,5.616 l -10.045,1.123 10.045,1.123 C -6.111,-2.429 -3.339,0 0,0"
         style="fill:#faf4de;fill-opacity:1;fill-rule:evenodd;stroke:none"
         transform="matrix(1.3333333,0,0,-1.3333333,673.138,210.65493)"
         clip-path="url(#clipPath65)" />
    </g>
  </g>
</svg>
