<?xml version="1.0" encoding="utf-8"?>
<!DOCTYPE svg PUBLIC "-//W3C//DTD SVG 1.1//EN" "http://www.w3.org/Graphics/SVG/1.1/DTD/svg11.dtd">
<svg version="1.1" id="Layer_1" xmlns="http://www.w3.org/2000/svg" xmlns:xlink="http://www.w3.org/1999/xlink" x="0px" y="0px"
	 viewBox="541.6968 -61.9833 837.3032 2043.9928" enable-background="new 541.6968 -61.9833 837.3032 2043.9928"
	 xml:space="preserve">
<g id="_x23_ffffffff">
</g>
<g>
	<path fill="#990000" stroke="#990000" stroke-width="0.0938" d="M969.53,337.07c3.83,0.11,7.68,0.22,11.52,0.06
		c1.13,10.38,0.43,20.85,1.43,31.24c0.46,5.53,0.1,11.08,0.24,16.62c0.01,10.55,0.42,21.18-1.17,31.65
		c-0.39,2.35-1.61,5.43-4.52,5.16c-10.34,0.14-20.7,0.05-31.04,0.55c-8.5,0.98-17.08,0.38-25.6,1.16
		c-9.12,0.87-18.33,0.22-27.42,1.45c-24.72,0.88-49.36,3.13-74,5.26c-7.72,0.2-15.3199,1.81-23.04,2.03
		c-11.08,0.41-21.98,2.6-32.97,3.9c-4.25,0.57-8.4,1.75-12.64,2.35c-1.84-0.65-4.48-0.42-5.48-2.42c-1.59-2.6,0.34-5.36,1.3-7.78
		c8.39-1.36,16.94-1.73,25.23-3.71c5.84-0.79,11.77-0.64,17.63-1.39c13.07-0.44,25.96-3.18,39.04-3.37
		c5.67-0.27,11.26-1.39,16.94-1.68c6.31-0.47,12.75,0.5,18.94-1.24c5.91-1.57,12.05-0.59,18.08-0.9c7.03-0.21,13.95-1.7,20.99-1.84
		c7.03-0.14,13.99-1.5,21.04-1.06c7.37,0.5,14.72-1.72,22.06-0.35c5.67,0.92,11.37-0.27,17.0699,0.1c1.73-0.02,3.59,0.3,5.25-0.42
		c2.04-9.35,0.13-18.98,0.6801-28.45c0.48-7.71-0.58-15.35-1.04-23.02C968.49,353.01,966.95,344.78,969.53,337.07z"/>
	<path fill="#B30101" stroke="#B30101" stroke-width="0.0938" d="M850.01,94.87c44.58-3.23,89.27-4.83,133.97-5.3
		c43.6801-0.37,87.39,0.59,130.9401,4.09c28.1799,2.33,56.3199,5.72,84.0699,11.25c21.88,4.44,43.62,10.12,64.2,18.88
		c19.2101,8.43,38.5801,19.68,49.9501,37.93c2.7,6.42,0.28,14.03,3.78,20.28c-0.2201,10.98-1.2301,21.94-1.6001,32.92
		c-0.5499,7.03-0.88,14.11-2.21,21.05c-0.12-1.19-0.23-2.38-0.34-3.56c-0.51,0.19-1.51,0.58-2.01,0.77c-2.1801-3.41-4.28-7-7.6-9.43
		c-3.78-2.85-6.8-6.54-10.6-9.35c-16.2001-11.66-35.5-17.7-54.55-22.88c-12.36-3.1-24.8-5.91-37.3-8.41
		c-6.5699-1-13.1599-1.78-19.6499-3.25c-11.3501-1.6-22.76-2.89-34.05-4.89c-21.89-3.19-43.99-4.34-66.05-5.88
		c-9.2999-1.11-18.6899-0.66-28-1.54c-9.36,0.07-18.62-1.58-27.98-1.17c-22.98-0.05-45.97-0.43-68.95-0.01
		c-8.36,0.19-16.75-0.35-25.07,0.56c-15.94,1.28-31.91,1.93-47.85,3.22c-29.05,2.82-58.15,5.31-86.99,9.83
		c-6.64,1.29-13.37,1.92-20.03,3.03c-8.4,1.08-16.6,3.29-25.03,4.13c-28.53,5.73-57.05,11.92-84.72,21.02
		c-10.06,3.72-20.32,7.06-29.71,12.31c-6.22,3.63-12.61,7.26-17.44,12.71c-2.55,2.45-4.47,5.49-5.18,8.98
		c-0.55,0.16-1.66,0.47-2.21,0.63c-1.37-5.8-0.83-11.84-2.15-17.65c-1.36-6.64-0.69-13.48-1.82-20.16
		c-1.85-10.28-0.67-20.79-2.23-31.11c-0.23,2.74-0.48,5.48-0.75,8.21c-0.31-3.71-0.62-7.43-0.67-11.16
		c-0.19-1.29,0.83-2.27,1.5-3.23c10.18-12.79,23.95-22.17,38.35-29.61c18.85-9.54,39.02-16.19,59.42-21.51
		C751.41,104.32,800.77,98.78,850.01,94.87z"/>
	<path fill="#B30101" stroke="#B30101" stroke-width="0.0938" d="M973,275.98c8.29-0.87,16.63-0.56,24.96-0.64
		c33.05-0.18,66.1099-0.34,99.15,0.16c9.26,1.04,18.61,0.64,27.87,1.85c20.51,1.45,40.8101,4.72,61.11,7.89
		c4.54,0.9,8.88,2.63,13.4401,3.54c10.21,2,19.6,6.62,29.36,10.04c7.53,4.29,16.24,7.68,21.25,15.16
		c4.09,5.61,4.52,13.18,2.38,19.63c-2.38,7.19-6.88,13.47-11.91,19.05c-0.85,0.98-1.9399,1.67-3.03,2.31
		c-0.01,0.75-0.0199,2.25-0.0299,3c-3.12-1.1-2.4501-3.9-1.2201-6.12c-1.4299-2.77-2.5499-6.08-5.4399-7.67
		c-3.65-2.21-7.67-3.7-11.5-5.55c-4.71-2.33-10-3.04-14.78-5.19c-11.29-3.77-23.46-3.59-34.78-7.18
		c-5.1899-1.57-10.6799-1.02-15.9399-2.14c-6.22-1.37-12.63-0.79-18.9-1.72c-8.66-0.84-17.25-2.62-25.98-2.35
		c-8.02-0.25-16.22,0.87-24-1.61c-21.61-1.3-43.3101-1.49-64.97-1.38c-29.95,0.01-59.95-0.48-89.84,1.44
		c-13.95,2.6-28.22,0.91-42.28,2.26c-5.16,0.52-10.35,0.06-15.49,0.73c-4.46,0.57-8.9,1.42-13.41,1.49
		c-12.45-0.07-24.64,2.88-37.05,3.41c-12.12,2.69-24.65,2.34-36.8,4.89c-3.68,0.77-7.4,1.31-11.14,1.69
		c-4.76,0.34-9.03,2.71-13.65,3.66c-5.64,1.45-11.55,1.15-17.18,2.64c-4.4,1.14-8.84,2.19-13.02,4c-5.67,2.37-11.91,2.97-17.52,5.52
		c-6.33,2.72-11.56,7.31-16.97,11.46c3.2,3.63,0.95,8.49,1.31,12.76c0.48,12.65-0.73,25.28-0.46,37.93
		c-0.66,14.54-1.04,29.22,0.58,43.71c5.98,0.59,11.21-2.79,17-3.49c7.59-0.97,15.11-2.37,22.66-3.66c8-2.1,16.4-1.81,24.3799-4.04
		c17.42-3.22,35.35-2.57,52.76-5.89c5.93-2.25,12.32-1.07,18.46-2.07c5.15-0.78,10.53,0.27,15.52-1.56c3.58-1.26,7.4-0.8,11.13-0.87
		c2.74,0.01,5.22-1.4,7.91-1.79c3.99,0.17,7.97,1.2,11.97,0.44c6.39-1,12.89-0.4,19.3-1.21c6.43-0.85,12.94-0.05,19.37-0.91
		c9.14-1.32,18.42,0.28,27.55-1.19c12.94-1.02,25.95-0.01,38.9-0.53c13.27-1.64,26.66-0.47,39.98-0.8
		c11.36,0.22,22.79-0.69,34.1,0.72c4.25,0.39,8.4501-1,12.71-0.41c11.7001,1.7,23.5701-0.37,35.27,1.38
		c10.61,1.29,21.61-1.42,31.9601,1.91c4.48,0.76,9.08,0.12,13.6,0.8c7.96,1.14,16.03-0.08,24.02,0.94
		c16.12,2.52,32.5499,1.63,48.6699,4.17c3.1,0.36,6.2001,1.12,9.35,1.05c1.26-0.62,0.76-2.49,1.1101-3.63
		c0.2999-10.32,0-20.65,0.22-30.97c0.22-6.8-0.4-13.62,0.49-20.38c1.03,3.68,0.98,7.53,0.87,11.33
		c-0.08,14.48,0.13,28.97-0.11,43.46l0.45,0.05c3.88,0.56,8.28,1.87,10.4501,5.44c1.62,3.1,0.09,6.61-1.52,9.36
		c3.7999,4.37,6.88,9.78,6.76,15.75c0.0599,4.49-2.0901,8.59-4.55,12.21l-0.52,0.16c-3.6,0.71-6.2999,3.27-8.73,5.83
		c-12.5-3.51-25.58-3.91-38.39-5.66c-6.37-0.96-12.8099-0.37-19.2-0.64c-11.29-1.15-22.63-1.19-33.9401-1.92
		c-8.47,0.31-16.71-2.19-25.1599-2.01c-12.8501,0.05-25.7001,0.14-38.51-0.66c-11.78,1.16-23.61,0.6-35.42,0.7
		c-16.66,0.06-33.32-0.05-49.97,0.06c-17.94,1.88-36.01,0.37-54,1.17c-6.33,0.38-12.7-0.02-19,0.79c-8.63,1.2-17.35,0.9-25.99,1.89
		c-9.35,0.21-18.7,0.04-28.05,0.11c-4.76,0.01-9.35,1.49-14.09,1.73c-8.68,0.65-17.42-0.27-26.08,0.86
		c-10.8,1.29-21.82-0.86-32.5,1.54c-4.38,0.95-8.93-0.49-13.25,0.89c-3.51,1.09-7.15,1.69-10.83,1.36
		c-3.63-0.45-6.76,2.07-10.34,1.86c-11.11-0.48-21.91,2.78-32.9,3.8c-4.59,0.32-8.39,3.43-12.98,3.76
		c-5.05,0.41-9.59,2.87-14.55,3.7c-0.8,1.13-1.58,2.28-2.36,3.43c-0.56-0.52-1.11-1.04-1.64-1.54c-0.51,0.77-1,1.56-1.4901,2.35
		c-14.4399-4.5-19.59-25.38-9.16-36.22c-0.45-2.2-1.35-4.41-0.95-6.67c1.03-2.81,4.33-3.37,6.71-4.56
		c-1.14-31.25-0.15-62.53,0.93-93.76c-0.67,1.59-1.25,3.21-1.79,4.85c-3.96-2.51-6.25-6.76-8.51-10.71
		c-4.75-8.98-7.29-19.79-4.07-29.71c2.95-9.33,10.51-16.48,19.01-20.92c4.27-2.07,8.49-4.33,13.08-5.62
		c12.78-3.36,25.6-6.61,38.69-8.54c9.04-1.21,17.9301-3.62,27.09-3.81c11.28-1.69,22.58-3.43,33.99-4.1
		c17.32-1.52,34.63-3.42,52.01-4.11c9.68-0.53,19.33-1.83,29.04-1.69c7.32-0.15,14.61-1.19,21.95-0.94c6.02,0.22,11.99-0.78,18-0.96
		C946.99,276.2,960,276.44,973,275.98z"/>
	<path fill="#B30101" stroke="#B30101" stroke-width="0.0938" d="M933.52,482.59c1.01-0.91,1.86-1.98,2.77-2.98
		c4.6,0.09,2.94,5.37,5.41,7.62c3.21,0.44,8.3,0.34,8.47,4.75c0.13,92.15-0.05,184.31,0.13,276.47c0.43,0.03,1.3,0.08,1.73,0.11
		c-0.83,1.89-0.8701,4.58-3.01,5.53c-1.23,0.67-2.65,0.84-4.01,0.93c-57.66,0.06-115.34-0.05-173.01,0.01
		c-2.55-0.1201-5.26,0.42-7.68-0.47c-2.3-3.36-1.4-7.81-0.26-11.44c1.12-3.21,1.04-6.65,0.54-9.96c-1.08-7-0.44-14.1-0.62-21.15
		c-0.02-68.34,0.05-136.67,0-205c0.16-8.66-0.48-17.35,0.73-25.96c0.53-2.73-0.7-6.52,2.05-8.3c5.26-0.26,10.58,0.77,15.82-0.28
		c6.16-1.27,12.67,0.07,18.66-2.12c4.5-1.07,9.19-0.03,13.77-0.57c5.96-0.64,11.98,0.1,17.93-0.68c5.17-0.74,10.66,0.79,15.56-1.49
		c7.57-2.16,15.57,0.74,23.2-1.08c7.28-1.38,14.72-0.81,22.06-1.14c6.26-2.62,13.09-0.65,19.59-1.99
		C920.04,482.7,926.8,482.73,933.52,482.59 M944.38,489.02c-1.36,1.85-3.66,3.44-3.48,6c-0.05,77.32,0,154.65-0.02,231.97
		c-0.21,12.81,0.44,25.65-0.35,38.44c-3.4301,1.39-7.03,0.47-10.55,0.31c-53.03-0.02-106.06,0.02-159.08-0.01
		c-2.56-0.09-7,0.77-6.16,4.25c0.12,3.83,4.62,3.19,7.28,3.28c53.66-0.14,107.32,0.03,160.98-0.07c3.89-0.08,7.85,0.42,11.68-0.46
		c2.55-0.68,4.66-2.92,4.21-5.71c-0.11-91.01,0.11-182.04-0.09-273.05C949.46,490.86,946.83,489.72,944.38,489.02 M918.87,500.96
		c-46.14,3.14-92.27,6.33-138.4,9.51c-0.7,77.91-1,155.83-1.7,233.75c48.06,0.14,96.12-0.1299,144.17,0.13
		c0.88-0.97,1.32-2.09,1.35-3.37c-0.16-76.64-0.02-153.28-0.07-229.93c-0.21-3.51,1.17-7.56-1.3-10.54
		C921.55,500.67,920.21,500.82,918.87,500.96z"/>
	<path fill="#800000" stroke="#800000" stroke-width="0.0938" d="M930.96,166.93c8.32-0.91,16.71-0.37,25.07-0.56
		c22.98-0.42,45.97-0.04,68.95,0.01c9.36-0.41,18.62,1.24,27.98,1.17c9.3101,0.88,18.7001,0.43,28,1.54
		c22.0601,1.54,44.16,2.69,66.05,5.88c11.29,2,22.7,3.29,34.05,4.89c6.49,1.47,13.08,2.25,19.6499,3.25
		c12.5,2.5,24.9401,5.31,37.3,8.41c19.05,5.18,38.35,11.22,54.55,22.88c3.7999,2.81,6.8199,6.5,10.6,9.35
		c3.3199,2.43,5.4199,6.02,7.6,9.43c0.5-0.19,1.5-0.58,2.01-0.77c0.11,1.18,0.22,2.37,0.34,3.56c-0.48,2.99-0.71,6.01-0.85,9.03
		c-0.42,5.15-3.79,9.41-7.45,12.78l-0.42,0.08c-3.63,0.53-7.02,1.94-10.4,3.27c2.8-5.29,5.83-10.52,7.98-16.15
		c-0.74-5.6-3.59-11.55-8.8099-14.24c-3.7101-2.16-6.5-5.53-10.0701-7.89c-4.09-3.11-9.0399-4.75-13.2799-7.61
		c-2.8501-2.05-6.3401-2.64-9.5801-3.75c-9.0699-4.3-19.09-5.89-28.64-8.81c-7.89-2.54-16.21-3.01-24.22-5.03
		c-23.9301-4.79-48.22-7.69-72.55-9.33c-9.63-1.85-19.5-0.87-29.1599-2.24c-8.3201-2.06-16.92-0.42-25.3301-1.59
		c-6.74-0.94-13.5399-0.34-20.2899-0.69c-14.78-1.61-29.67-0.07-44.46-1.54c-22.83-0.71-45.68-0.06-68.51-0.32
		c-10.38-0.3-20.69,1.46-31.07,1.07c-7.7-0.41-15.31,1.26-23.01,0.97c-8.02-0.4-15.95,1.12-23.96,1.09
		c-9.54,1.07-19.19,0.66-28.65,2.41c-17.4,0.96-34.69,3.28-52.01,5.03c-12.03,2.75-24.37,3.67-36.44,6.24
		c-7.48,1.5-15.26,1.81-22.4,4.69c-4.92,2.07-10.35,1.81-15.4901,2.89c-6.81,1.41-13.22,4.29-20.08,5.49
		c-4.8,0.88-9.11,3.3-13.83,4.44c-4.48,1.11-8.5,3.44-12.69,5.29c-4.17,1.88-8.88,2.51-12.72,5.1c-4.89,3.15-9.37,7.04-14.91,9.04
		c-2.37,3.98-6.95,5.8-9.47,9.65c-2.21,3.06-3.9901,6.8-3.34,10.67c0.59,2.01,1.99,3.63,3.11,5.36c-1.6,0.34-3.2,0.69-4.79,1.02
		c5.33,1.89,8.8,6.48,12.54,10.44c-1.55,0.42-3.1,0.83-4.64,1.26c-6.23-3.2-12.36-7.01-16.79-12.54c-2.1-2.59-3.38-5.7-4.96-8.6
		c-0.04-2.11-0.2-4.22-0.5-6.3c1.36-1.24,2.7-2.6,3.04-4.49c0.71-3.49,2.63-6.53,5.18-8.98c4.83-5.45,11.22-9.08,17.44-12.71
		c9.39-5.25,19.65-8.59,29.71-12.31c27.67-9.1,56.19-15.29,84.72-21.02c8.43-0.84,16.63-3.05,25.03-4.13
		c6.66-1.11,13.39-1.74,20.03-3.03c28.84-4.52,57.94-7.01,86.99-9.83C899.05,168.86,915.02,168.21,930.96,166.93z"/>
	<path fill="#870C0C" stroke="#870C0C" stroke-width="0.0938" d="M604.85,182.08c0.27-2.73,0.52-5.47,0.75-8.21
		c1.56,10.32,0.38,20.83,2.23,31.11c1.13,6.68,0.46,13.52,1.82,20.16c1.3199,5.81,0.78,11.85,2.15,17.65
		c0.55-0.16,1.66-0.47,2.21-0.63c-0.34,1.89-1.68,3.25-3.04,4.49c-2.46-12.4-3.03-25.05-4.43-37.58
		c-0.77-7.82-0.91-15.69-1.97-23.48C604.63,184.42,604.72,183.25,604.85,182.08z"/>
	<path fill="#720000" stroke="#720000" stroke-width="0.0938" d="M916,183.01c10.38,0.39,20.69-1.37,31.07-1.07
		c22.83,0.26,45.68-0.39,68.51,0.32c14.79,1.47,29.68-0.07,44.46,1.54c6.75,0.35,13.5499-0.25,20.2899,0.69
		c8.41,1.17,17.01-0.47,25.3301,1.59c9.6599,1.37,19.5299,0.39,29.1599,2.24c24.3301,1.64,48.62,4.54,72.55,9.33
		c8.01,2.02,16.33,2.49,24.22,5.03c9.55,2.92,19.5701,4.51,28.64,8.81c3.24,1.11,6.73,1.7,9.5801,3.75
		c4.24,2.86,9.1899,4.5,13.2799,7.61c3.5701,2.36,6.36,5.73,10.0701,7.89c5.22,2.69,8.0699,8.64,8.8099,14.24
		c-2.15,5.63-5.1799,10.86-7.98,16.15c3.38-1.33,6.77-2.74,10.4-3.27c-4.2001,3.59-9.41,6.39-15.04,6.47
		c-13.78,13.28-30.02,23.66-46.46,33.3c-0.34-2.07-0.6801-4.15-1.3101-6.15c-2.2999-7.77-7.0499-14.71-13.62-19.49
		c-9.14-8.4-21.0599-12.41-31.87-18.08c-15.7799-5.93-32.22-9.88-48.73-13.14c-8.66-0.93-17.09-3.23-25.75-4.17
		c-8.6799-0.84-17.28-2.37-25.99-2.95c-10.8-1.8-21.77-1.49-32.63-2.62c-9.95-1.13-19.97-0.72-29.96-0.91
		c-32.97-1.65-66.01-0.95-99.01-0.79c-10.33,0.58-20.66,1.06-31.01,0.86c-13.35,1.06-26.73,1.46-40.08,2.54
		c-31.7,2.95-63.63,5.73-94.53,13.74c-19.46,3.72-38.1,11.1-55.42,20.63c-6.43,3.95-12.63,8.61-16.88,14.95
		c-3.53,4.06-4.6,9.6-4.66,14.83c0.52,4.02,3.02,7.43,5.74,10.3c-0.62,0.16-1.87,0.49-2.5,0.65c-1.04-1.46-1.99-2.98-2.84-4.55
		c-12.25-0.2-23.16-6.72-33.22-13.07c-5.13-3.39-10-7.15-14.62-11.19c-3.19-2.4-7.31-3.01-10.78-4.93c1.54-0.43,3.09-0.84,4.64-1.26
		c-3.74-3.96-7.21-8.55-12.54-10.44c1.59-0.33,3.19-0.68,4.79-1.02c-1.12-1.73-2.52-3.35-3.11-5.36c-0.65-3.87,1.13-7.61,3.34-10.67
		c2.52-3.85,7.1-5.67,9.47-9.65c5.54-2,10.02-5.89,14.91-9.04c3.84-2.59,8.55-3.22,12.72-5.1c4.19-1.85,8.21-4.18,12.69-5.29
		c4.72-1.14,9.03-3.56,13.83-4.44c6.86-1.2,13.27-4.08,20.08-5.49c5.14-1.08,10.57-0.82,15.4901-2.89
		c7.14-2.88,14.92-3.19,22.4-4.69c12.07-2.57,24.41-3.49,36.44-6.24c17.32-1.75,34.61-4.07,52.01-5.03
		c9.46-1.75,19.11-1.34,28.65-2.41c8.0099,0.03,15.9399-1.49,23.96-1.09C900.69,184.27,908.3,182.6,916,183.01z"/>
	<path stroke="#000000" stroke-width="0.0938" d="M603.89,191.05c-0.11-1.84-0.38-3.82,0.68-5.46c1.06,7.79,1.2,15.66,1.97,23.48
		c1.4,12.53,1.97,25.18,4.43,37.58c0.3,2.08,0.46,4.19,0.5,6.3c-2.11-2.5-2.12-5.91-2.7599-8.95
		C606.07,226.46,605.08,208.73,603.89,191.05z"/>
	<path stroke="#000000" stroke-width="0.0938" d="M1243.62,1477.65c6.88-5.9,12.46-13.0601,18.17-20.04
		c0.38,1.2001,0.75,2.4301,1.11,3.6801c1.98,27.4399,3.33,54.98,3.96,82.5c-0.38,5.08-0.11,10.1699,0.29,15.25
		c0.16,48.1499,1.98,96.3199,0.23,144.46c-9.1,15.36-19.84,29.8-32.71,42.23c-27.6901,27.42-62.5,46.76-99.01,59.78
		c-43.52,15.4399-89.64,22.45-135.64,24.53c-46.17,2.0699-92.92-2.27-137.24-15.75c-36.67-11.13-71.6-28.53-101.69-52.36
		c-16.61-13.2301-31.94-28.26-44.42-45.5c-1.07-1.67-2.69-3.28-2.42-5.41c-0.02-77.61-0.37-155.22-0.76-232.84
		c0.06-2.9301,0.24-5.8601,0.45-8.76c1.48,1.0599,2.96,2.1499,4.41,3.3099c13.56,11.55,29.32,20.24,45.63,27.25
		c35.14,14.85,72.69,23.1,110.33,28.6c51.5,7.3101,103.62,9.63,155.61,8.66c43.13-1.29,86.46-5.5599,128.21-16.92
		C1188.89,1511.64,1219.45,1499.1,1243.62,1477.65z"/>
	<path fill="#8C0000" stroke="#8C0000" stroke-width="0.0938" d="M903.01,230.19c10.35,0.2,20.68-0.28,31.01-0.86
		c33-0.16,66.04-0.86,99.01,0.79c9.99,0.19,20.01-0.22,29.96,0.91c10.86,1.13,21.83,0.82,32.63,2.62
		c8.71,0.58,17.3101,2.11,25.99,2.95c8.66,0.94,17.09,3.24,25.75,4.17c16.51,3.26,32.9501,7.21,48.73,13.14
		c10.8101,5.67,22.73,9.68,31.87,18.08c6.5701,4.78,11.3201,11.72,13.62,19.49c0.4301,4.11,0.1901,8.31-1.22,12.23
		c-3.7999-1.69-7.5499-3.5-11.47-4.89c-9.76-3.42-19.15-8.04-29.36-10.04c-4.5601-0.91-8.9-2.64-13.4401-3.54
		c-20.2999-3.17-40.6-6.44-61.11-7.89c-9.26-1.21-18.61-0.81-27.87-1.85c-33.04-0.5-66.1-0.34-99.15-0.16
		c-8.33,0.08-16.67-0.23-24.96,0.64c-13,0.46-26.01,0.22-39.01,0.37c-6.01,0.18-11.98,1.18-18,0.96
		c-7.34-0.25-14.63,0.79-21.95,0.94c-9.71-0.14-19.36,1.16-29.04,1.69c-17.38,0.69-34.69,2.59-52.01,4.11
		c-11.41,0.67-22.71,2.41-33.99,4.1c-9.16,0.19-18.05,2.6-27.09,3.81c-13.09,1.93-25.91,5.18-38.69,8.54
		c-4.59,1.29-8.81,3.55-13.08,5.62c-0.74,0.27-2.22,0.79-2.96,1.06c-2.72-2.87-5.22-6.28-5.74-10.3c0.06-5.23,1.13-10.77,4.66-14.83
		c4.25-6.34,10.45-11,16.88-14.95c17.32-9.53,35.96-16.91,55.42-20.63c30.9-8.01,62.83-10.79,94.53-13.74
		C876.28,231.65,889.66,231.25,903.01,230.19z"/>
	<path fill="#C00000" stroke="#C00000" stroke-width="0.0938" d="M1047.99,476.06c11.8101-0.1,23.64,0.46,35.42-0.7
		c12.8099,0.8,25.6599,0.71,38.51,0.66c8.45-0.18,16.6899,2.32,25.1599,2.01c11.3101,0.73,22.65,0.77,33.9401,1.92
		c6.39,0.27,12.83-0.32,19.2,0.64c12.8101,1.75,25.89,2.15,38.39,5.66c2.4301-2.56,5.13-5.12,8.73-5.83
		c-1.6,2.33-3.63,4.36-6.1,5.76c-1.05,29.61,0.02,59.23,0.1,88.85c-0.0599,11.79,0.52,23.59,0.1801,35.37
		c-1.63,7.44-0.65,15.08-0.88,22.62c0.6799,26,0.4399,52.01,0.75,78.01c1.88,38.61,1.85,77.27,2.02,115.92
		c1.24,22.69,1.39,45.4,1.83,68.11c0.27,20.31-0.3099,40.66,1.41,60.91c0.97,31.3701-0.09,62.8101,1.99,94.14
		c0.79-7.47-0.3-15,0.66-22.45c1.3199,51.95,2.3199,103.9099,3.4199,155.87c0.41,17.24,1.1,34.51,0.91,51.75
		c-0.64,2.85-1.14,5.76-1.01,8.71c0.51,13.97,0.52,27.96,0.61,41.95c0.6,27.03,2.13,54.04,2.03,81.0901
		c0.4299,14.65,0.45,29.3199,1.33,43.96c-0.0399,2.41,0.62,5.34-1.36,7.21c-4.33,4.8501-9.6899,8.78-13.29,14.29
		c-7.5399,6.87-16.45,11.9301-24.97,17.45c-14.09,7.6001-28.73,14.4401-44.1799,18.75c-0.14,0.17-0.42,0.52-0.5601,0.6901
		c-6.77,2.1899-13.79,3.54-20.5,5.9399c-2.78-0.25-8.13,0.3301-8.13-3.6799c0.23-13.54,0.04-27.09,0.0601-40.63
		c-0.05-8.6901,0.4299-17.39-0.63-26.03c-0.54-9.98-0.03-19.98-0.29-29.96c-0.42-16.0801,0.76-32.22-1.22-48.22
		c-0.74-37.28-0.3301-74.5701-0.5801-111.8501c-1.48-20.9399-0.5099-41.96-0.8199-62.9299c0.03-21.02-0.3099-42.02-0.14-63.03
		c0.0701-5.36-0.75-10.67-0.8099-16.01c-0.01-43.6899-0.0601-87.38-0.2301-131.07c-0.1399-4.3-0.7999-8.5699-0.8199-12.87
		c0.09-15.7-0.0599-31.39-0.04-47.08c-0.2-13.66,0.39-27.35-0.9199-40.96c0.0499-51.68-0.3201-103.35-0.41-155.02
		c-0.08-11.34,0.45-22.7-0.64-34.01c-0.24-15.99-0.0499-31.99-0.09-47.99c0.28-8.68-1.12-17.3-0.8-25.97
		c0.02-19.34-0.15-38.68-0.0699-58.02c-0.23-13.64,0.4199-27.32-1.25-40.91c-9.65-2.02-19.53-0.8-29.28-1.51
		c-7.76-0.41-15.53-0.37-23.29-0.19c-0.97,10.85-0.0399,21.75-0.35,32.62c0.0601,30.98,0.0701,61.96,0.03,92.94
		c-0.29,6.36,0.48,12.69,0.78,19.04c-0.0701,55.35,0.0599,110.69,0.09,166.04c0.34,20.55-0.47,41.14,0.45,61.67
		c-0.46,2.24-3.5599,1.8-5.2899,2.04c-15.3401,0.13-30.6901,0.15-46.03,0.15c-4.79,0.3-9.74-1.69-14.4-0.28
		c-1.24,4.69,0.27,9.58,0.11,14.36c0.05,19.39,0.45,38.8,1.79,58.14c0.45,2.76,0.15,7.1,3.88,7.5c20.28,3.6,40.85-0.5699,61.26,0.81
		c-1.3201,9.15-0.9401,18.42-0.98,27.64c0.4199,59.31,0.21,118.6201,0.35,177.93c-0.4,6.6801,0.49,13.3301,0.8199,19.99
		c-0.08,40.6901,0.0901,81.38,0.17,122.0701c0.25,12.6499-0.42,25.3199,0.79,37.9399c0.08,28.01,0.0399,56.02,0.1499,84.03
		c-0.24,9.67,1.3,19.29,0.88,28.97c0.27,18.05-0.95,36.29,2.26,54.15c12.4601-1.6901,24.9-3.55,37.28-5.8
		c6.71-1.2,13.3101-3.7,20.23-3.1c-5.85,2.61-12.25,3.17-18.48,4.26c-10.14,2.25-20.5,3.3101-30.73,5.05
		c-5.71,1-11.53,0.7899-17.23,1.76c-6.54,1.0299-13.16,0.99-19.74,1.51c-8.0701,1.22-16.27,0.49-24.37,1.4099
		c-15.35,0.38-30.7001,0.1901-46.05,0.15c-8.04,0.24-16.02-0.99-24.06-0.84c-7.66-0.23-15.4,0.2-22.98-1.2101
		c-13.97-1.5399-28.05-1.97-42-3.72c-4.33-0.48-8.65-1-12.9901-1.1899c-5.34-0.14-10.46-2.11-15.8199-1.9501
		c0.56-0.3099,1.13-0.61,1.71-0.88c-3.98-0.14-7.96-0.4099-11.87-1.1899c-8.44-1.76-17.05-2.64-25.42-4.74
		c-2.87-0.76-5.82-1.15-8.76-1.34c-0.13-0.2001-0.39-0.6101-0.52-0.8201c-9.3-2.15-18.58-4.42-27.61-7.54
		c-12.62-3.4099-24.58-8.71-36.4-14.21c-12.82-6.52-25.41-14.15-35.11-24.95c-3.68-4.49-6.82-9.51-8.86-14.9401
		c-0.9-9.25-0.4-18.59-0.82-27.87c-1.33-57-2.58-113.99-3.89-170.99c-0.2599-21.8099-1.36-43.63-1.28-65.4399
		c1.46-7.78,0.11-15.6801,0.34-23.51c-0.41-16.36,0.7401-32.78-0.95-49.0901c-0.31-4.98,0.05-9.96-0.21-14.9299
		c-1.24-16.96-0.76-33.98-0.93-50.96c-0.17-5.52,0.7-11.18-0.95-16.54c-0.69,5.69-0.14,11.45-0.95,17.14l-0.01,0.07
		c0.4-13.75-0.67-27.5-0.3799-41.24c0.95-6.13,0.2599-12.32,0.33-18.48c0.06-9.33-0.05-18.66-0.01-27.99
		c0.09-6.69-0.9-13.33-0.85-20.02c0.01-6.67-0.24-13.34-0.71-19.99c-0.52-17.94-0.34-35.88-0.55-53.81
		c-0.61-9.09-0.56-18.21-1.03-27.3c-0.5,10.35,0.22,20.72-0.55,31.0699c-0.65-28.95-1.18-57.91-1.98-86.86
		c0.29-10.79-0.25-21.59-0.63-32.37c-1.75-69.05-3.11-138.11-4.81-207.16l0.48-0.76c0.4901-0.79,0.98-1.58,1.4901-2.35
		c0.53,0.5,1.08,1.02,1.64,1.54c0.78-1.15,1.56-2.3,2.36-3.43c4.96-0.83,9.5-3.29,14.55-3.7c4.59-0.33,8.39-3.44,12.98-3.76
		c10.99-1.02,21.79-4.28,32.9-3.8c3.58,0.21,6.71-2.31,10.34-1.86c3.68,0.33,7.32-0.27,10.83-1.36c4.32-1.38,8.87,0.06,13.25-0.89
		c10.68-2.4,21.7-0.25,32.5-1.54c8.66-1.13,17.4-0.21,26.08-0.86c4.74-0.24,9.33-1.72,14.09-1.73c9.35-0.07,18.7,0.1,28.05-0.11
		c8.64-0.99,17.36-0.69,25.99-1.89c6.3-0.81,12.67-0.41,19-0.79c17.99-0.8,36.06,0.71,54-1.17
		C1014.67,476.01,1031.33,476.12,1047.99,476.06 M933.52,482.59c-6.72,0.14-13.48,0.11-20.17,0.81c-6.5,1.34-13.33-0.63-19.59,1.99
		c-7.34,0.33-14.78-0.24-22.06,1.14c-7.63,1.82-15.63-1.08-23.2,1.08c-4.9,2.28-10.39,0.75-15.56,1.49
		c-5.95,0.78-11.97,0.04-17.93,0.68c-4.58,0.54-9.27-0.5-13.77,0.57c-5.99,2.19-12.5,0.85-18.66,2.12
		c-5.24,1.05-10.56,0.02-15.82,0.28c-2.75,1.78-1.52,5.57-2.05,8.3c-1.21,8.61-0.57,17.3-0.73,25.96c0.05,68.33-0.02,136.66,0,205
		c0.18,7.05-0.46,14.15,0.62,21.15c0.5,3.31,0.58,6.75-0.54,9.96c-1.14,3.63-2.04,8.08,0.26,11.44c2.42,0.89,5.13,0.35,7.68,0.47
		c57.67-0.0601,115.35,0.05,173.01-0.01c1.36-0.09,2.78-0.26,4.01-0.93c2.14-0.95,2.18-3.64,3.01-5.53
		c-0.4301-0.03-1.3-0.08-1.73-0.11c-0.18-92.16,0-184.32-0.13-276.47c-0.17-4.41-5.26-4.31-8.47-4.75
		c-2.47-2.25-0.81-7.53-5.41-7.62C935.38,480.61,934.53,481.68,933.52,482.59 M853.39,800.46c-2.51,0.44-5.48,0.65-7.13,2.86
		c-2.68,2.98-2.21,7.3-2.74,11.01c-0.5,3.2,1.43,6.47,0.3,9.55c-3.25,0.89-6.55-0.75-9.84-0.68c-7.78-0.16-16.24-0.66-23.13,3.59
		c-7.15,5.89-7.14,15.78-7.59,24.2401c0.59,4.14,2.09,8.1299,3.7,11.98c1.74,3.89,5.99,5.46,8.74,8.35
		c0.84,5.91,0.81,11.94,2.14,17.81c0.87,3.59,1.15,8.18,4.49,10.42c10.21,0.61,20.47,0.44,30.7,0.42c8,0.2,15.91-1.4,23.92-1.11
		c3.43-0.37,8.66-0.02,9.98-4.04c2.51-7.83,0.82-17,5.95-23.94c3.54-3.39,6.36-7.56,7.57-12.36c2.6-7.57,2.94-15.76,1.58-23.61
		c-0.59-3.97-3.4301-7.13-6.35-9.64c-6.58-4.3-14.89-3.41-22.31-2.73c-3.16,0.12-6.9,3.85-9.56,1.47
		c-0.49-5.78,0.84-11.7-0.52-17.39C860.68,803.92,857.59,799.95,853.39,800.46 M879.74,908.65c-5.17,0.72-10.45,0.25-15.53,1.58
		c-0.02,3.12-0.34,6.5,1.63,9.18c2.3-0.22,5.41-0.04,6.19,2.64c0.46,3.91-0.22,7.88,0.43,11.8c1.66,9.6801-0.16,19.58,1.33,29.28
		c0.88,5.92,1.55,11.89,1.38,17.89c-0.16,4.35,1.03,8.62,0.92,12.97c0.06,1.36-1.02,2.3-1.81,3.28c-2.61-1.05-5.41-1.28-8-0.09
		c0.08,3.36-0.44,6.82,0.4399,10.11c1.34,0.79,2.8701,1.23,4.42,1.44c8.6,0.86,17.32,0.53,25.83-1.03c1.78-0.22,3-2,2.86-3.74
		c0.08-3.38,0.27-6.87-0.64-10.15c-2.26-3.77-6.71,2.93-9.55-0.44c-2-4.82-0.28-10.31-1.05-15.38c-0.75-4.68-0.46-9.4-0.26-14.1
		c5.14-0.26,7.86,4.53,10.9,7.82c5.62,6.13,9.25,13.87,15.44,19.49c3.15,2.75,3.08,8.29,7.44,9.75c4.57,1.83,9.34,0.01,13.83-1.13
		c1.44-0.31,2.54-1.39,3.42-2.52c1.94-2.16,0.21-5.36-1.6-6.97c-2.9-1.11-6.1-1.04-8.96-2.17c-3.77-3.3799-6.71-7.72-8.49-12.45
		c-2.15-5.96-8.98-9.64-8.87-16.48c2.85-2.76,6.11-5.13,8.35-8.48c5.2-5.72,5.88-14.08,4.67-21.39
		c-1.18-6.34-5.94-11.23-11.03-14.83c-3.02-2.42-6.97-2.86-10.48-4.21c-3.82-1.56-8-0.96-12-1.15
		C887.21,909.06,883.49,908.12,879.74,908.65 M789.97,911.71c-1.64-0.32-2.42,1.19-2.7,2.5099c0.63,3.8,6.97,1.9901,7.46,5.88
		c-0.85,3.73-2.99,7.3-2.17,11.27c1.22,7.9-0.85,15.74-0.61,23.65c-0.19,12.93-0.18,25.87-0.21,38.8c-3.52,0.98-7.09,1.7-10.68,2.27
		c-1.96,4.34-0.49,11.2599,4.98,11.86c8.95,0.97,17.94,2.37,26.97,1.86c8.47-0.75,17.05-1.17,25.3-3.39
		c2.83-6.33,7.09-12.32,7.71-19.38c-9.66,1.07-17.15,9.02-26.99,9.2401c-3.6801,0.04-8.16,0.52-10.85-2.53
		c-1.02-6.52-0.08-13.19-0.37-19.77c0.22-3.47-0.75-7.23,0.78-10.46c3.77,0.05,7.52-0.23,11.29-0.49c0.86,2.71,0.09,5.5099-0.51,8.2
		c4.21,1.83,7.67-2.3,11.32-3.76c0.69-7.17-1.56-14.25-0.68-21.4c0.31-2.79,0.89-5.85-0.84-8.32c-1.71-0.96-3.75-0.39-5.59-0.42
		c-0.43,2.68-0.56,5.45-1.38,8.06c-3.69,2.46-8.62,3.36-12.92,2.34c-3.46-1.9-2.32-6.5-2.13-9.71c1.0099-5-0.23-10.12,0.86-15.1
		c8.2-0.13,16.5-0.28,24.47-2.45c1.6,1.11,2.98,2.52,4.6,3.63c1.69-0.2,4.41-0.92,4.19-3.11c-0.31-3.15-1.95-6-3.59-8.63
		c-1.1-2.02-3.73-1.63-5.63-1.64C818.11,912.7,803.99,911.49,789.97,911.71 M851.75,934.29c-5.23-1.02-10.56-0.23-15.83-0.19
		c-1.62-0.35-3.2,1.12-2.78,2.77c0.22,2.3,3.18,1.8,4.79,2.57c1.87,4.61,1.22,9.65,1.26,14.51c-0.17,4.33,0.23,8.69-0.22,13.02
		c-1.18,0.88-2.49,1.58-3.65,2.48c-1.11,2.25,1.32,4.07,3.42,3.89c3.63-0.14,7.25-0.57,10.88-0.77c0.06-1.37,0.12-2.72,0.19-4.06
		c-1.55-0.79-4.39-0.37-4.64-2.57c-1.39-8.45-1.25-17.08-0.72-25.59c1.59-1.89,5.05-1.77,7.01-3.63c2.06,0.85,4.17,1.6,6.13,2.71
		c0.7599,2.44,0.34,5.09,0.47,7.62c-0.12,6.28,0.44,12.59-0.21,18.84c-1.15,0.88-2.41,1.58-3.54,2.47
		c-0.76,1.77-0.16,4.11,2.07,4.22c4.24,0.22,8.86,0.59,12.72-1.59c-0.93-2.4-3.02-3.8-5.04-5.18c-0.86-6.92,0.04-13.93-0.42-20.87
		c0.01-1.73-0.45-3.52,0.09-5.18c1.5-1.07,3.27-1.65,4.96-2.34c0.05-1.48,0.11-2.95,0.19-4.41
		C863.19,931.59,857.43,933.84,851.75,934.29z"/>
	<path fill="#C00000" stroke="#C00000" stroke-width="0.0938" d="M866.06,839.76c2.89-3.45,6.05-7.46,10.92-7.82
		c5.22-1.19,9.72,2.54,12.7,6.38c0.5,0.92,1.78,2.69,0.1,3.16c-3.34-0.41-6.4301-1.95-9.79-2.25
		C875.34,838.8,870.7,839.52,866.06,839.76z"/>
	<path fill="#C00000" stroke="#C00000" stroke-width="0.0938" d="M817.23,839.32c2.66-2.18,5.36-4.8,8.83-5.5
		c4.36,0.83,9.23,1.77,12.37,5.2c-3.97,1.55-8.27,1.43-12.39,2.25c-3.13,0.57-5.94,2.17-9.0099,2.96
		C815,843.32,815.77,840.39,817.23,839.32z"/>
	<path fill="#C00000" stroke="#C00000" stroke-width="0.0938" d="M890.39,923.33c7.53-2.64,16.98,3.64,17.74,11.66
		c0.39,3.15,0.46,6.81-1.84,9.31c-2.67,3.67-7.47,4.3-11.57,5.3c-1.73,0.55-3.55-0.52-4.5-1.91c-1.65-6.85,0.05-13.93-1.17-20.81
		C888.76,925.53,889.54,924.27,890.39,923.33z"/>
	<path fill="#A60000" stroke="#A60000" stroke-width="0.0938" d="M923.95,325.81c9.98-1.26,20.06-0.59,30.1-0.7
		c5.66-0.31,10.91,2.09,16.25,3.61c2.94,0.85,3.29,4.36,4.43,6.74c2.11,0.41,4.64,0.04,6.32,1.67c-3.84,0.16-7.69,0.05-11.52-0.06
		c-2.58,7.71-1.04,15.94-1.48,23.9c0.46,7.67,1.52,15.31,1.04,23.02c-0.55,9.47,1.36,19.1-0.6801,28.45
		c-1.66,0.72-3.52,0.4-5.25,0.42c-5.7-0.37-11.4,0.82-17.0699-0.1c-7.34-1.37-14.69,0.85-22.06,0.35
		c-7.05-0.44-14.01,0.92-21.04,1.06c-7.04,0.14-13.96,1.63-20.99,1.84c-6.03,0.31-12.17-0.67-18.08,0.9
		c-6.19,1.74-12.63,0.77-18.94,1.24c-5.68,0.29-11.27,1.41-16.94,1.68c-13.08,0.19-25.97,2.93-39.04,3.37
		c-5.86,0.75-11.79,0.6-17.63,1.39c-8.29,1.98-16.84,2.35-25.23,3.71c-0.96,2.42-2.89,5.18-1.3,7.78c1,2,3.64,1.77,5.48,2.42
		c-2.65,1.16-8.37,1.73-8.07-2.49c-0.45-18.31,0.9-36.75-1.75-54.94c-0.67-5.31,0.34-10.7-0.52-15.99
		c-1.12-3.66-5.72-3.62-8.25-5.82c-2.04-2.85,0.55-5.94,2.57-7.91c3.22-3.73,8.14-5.06,12.64-6.58c16.91-4.03,34.24-5.81,51.37-8.56
		c5.12-1.35,10.44-1.37,15.64-2.22c12.3-1.81,24.8-1.57,37.06-3.68c6.37-0.18,12.72-0.57,19.05-1.42
		c7.61-1.05,15.34-0.54,22.94-1.73C903.23,325.45,913.64,326.3,923.95,325.81 M878.05,352.5c-17,1.7-34.09,1.98-51.08,3.77
		c-9.1299,0.2-18.16,1.72-27.2599,2.31c-14.15,1.68-28.37,3.05-42.3,6.11c-3.17,0.83-3.16,4.66-3.03,7.3
		c-0.25,11.65,1.76,23.2,1.21,34.87c3.1,1.04,6.28-0.1,9.41-0.34c5.96-0.77,11.99-0.84,17.94-1.75c8.2-0.82,16.52-0.83,24.62-2.51
		c3.76-0.72,7.61-0.48,11.43-0.61c23.63-2.09,47.29-3.87,70.96-5.48c7.23-0.88,14.54-0.33,21.74-1.58
		c11.1,0.03,22.14-1.43,33.25-1.08c2.7-0.05,7.38,0.61,7.31-3.4c0.25-11.73,0.01-23.46,0.13-35.19c-0.02-1.86,0.01-4.7-2.42-4.95
		c-6.3-0.86-12.66,0.12-18.98,0.32c-10.64,0.18-21.29,0.3-31.93,0.58C892.09,351.87,885.08,352.45,878.05,352.5z"/>
	<path fill="#191919" stroke="#191919" stroke-width="0.0938" d="M878.05,352.5c7.03-0.05,14.04-0.63,21-1.63
		c10.64-0.28,21.29-0.4,31.93-0.58c6.32-0.2,12.68-1.18,18.98-0.32c2.43,0.25,2.4,3.09,2.42,4.95c-0.12,11.73,0.12,23.46-0.13,35.19
		c0.07,4.01-4.61,3.35-7.31,3.4c-11.11-0.35-22.15,1.11-33.25,1.08c-7.2,1.25-14.51,0.7-21.74,1.58
		c-23.67,1.61-47.33,3.39-70.96,5.48c-3.82,0.13-7.67-0.11-11.43,0.61c-8.1,1.68-16.42,1.69-24.62,2.51
		c-5.95,0.91-11.98,0.98-17.94,1.75c-3.13,0.24-6.31,1.38-9.41,0.34c0.55-11.67-1.46-23.22-1.21-34.87
		c-0.13-2.64-0.14-6.47,3.03-7.3c13.9301-3.06,28.15-4.43,42.3-6.11c9.1-0.59,18.13-2.11,27.2599-2.31
		C843.96,354.48,861.05,354.2,878.05,352.5z"/>
	<path fill="#C00001" d="M1237.55,357.97c-3.12-1.1-2.4501-3.8999-1.2201-6.12c-1.4299-2.77-2.5499-6.08-5.4399-7.67
		c-3.65-2.21-7.67-3.7-11.5-5.5499c-4.71-2.33-10-3.04-14.78-5.1901c-11.29-3.77-23.46-3.59-34.78-7.1799
		c-5.1899-1.5701-10.6799-1.02-15.9399-2.14c-6.22-1.37-12.63-0.79-18.9-1.7201c-8.66-0.8398-17.25-2.6199-25.98-2.3499
		c-8.02-0.25-16.22,0.8699-24-1.6101c-21.61-1.2999-43.3101-1.49-64.97-1.3799c-29.95,0.01-59.95-0.4801-89.8401,1.4399
		c-13.95,2.6-28.22,0.9099-42.28,2.26c-5.1599,0.52-10.3499,0.0601-15.49,0.73c-4.46,0.5701-8.8999,1.4199-13.4099,1.49
		c-12.45-0.0701-24.64,2.88-37.05,3.41c-12.12,2.6899-24.6499,2.34-36.8,4.89c-3.6799,0.77-7.3999,1.3099-11.1399,1.6899
		c-4.76,0.3401-9.03,2.71-13.65,3.66c-5.64,1.45-11.5499,1.15-17.1801,2.64c-4.3999,1.1399-8.84,2.1899-13.02,4
		c-5.6699,2.37-11.9099,2.97-17.52,5.52c-6.3298,2.72-11.5599,7.3099-16.9699,11.46c3.2,3.63,0.95,8.49,1.31,12.76
		c0.48,12.6499-0.73,25.28-0.46,37.9299c-0.66,14.54-1.04,29.22,0.58,43.71c5.98,0.5901,11.2101-2.7899,17-3.49
		c7.59-0.97,15.11-2.3699,22.66-3.6599c8-2.1001,16.3999-1.8101,24.3799-4.04c17.4202-3.22,35.3501-2.5699,52.76-5.8899
		c5.9301-2.25,12.3201-1.0701,18.4601-2.0701c5.15-0.78,10.5299,0.27,15.52-1.5601c3.58-1.26,7.4-0.7999,11.13-0.8699
		c2.74,0.0099,5.22-1.4001,7.9099-1.79c3.99,0.1699,7.97,1.2,11.97,0.4399c6.3901-1,12.8901-0.3999,19.3-1.21
		c6.4301-0.8501,12.9401-0.05,19.3701-0.91C926.72,428.28,936,429.88,945.13,428.4099c12.9401-1.0199,25.9501-0.01,38.9-0.5299
		c13.27-1.64,26.6599-0.4701,39.98-0.8c11.36,0.2201,22.79-0.6899,34.1,0.7201c4.25,0.3899,8.4501-1,12.71-0.41
		c11.7001,1.7,23.5701-0.37,35.27,1.38c10.61,1.29,21.61-1.42,31.9601,1.9099c4.48,0.76,9.08,0.1201,13.6,0.8
		c7.96,1.14,16.03-0.0801,24.02,0.9399c16.12,2.52,32.5499,1.6301,48.6699,4.17c3.1,0.36,6.2001,1.12,9.35,1.05
		c1.26-0.62,0.76-2.4901,1.1101-3.63c0.2999-10.3201,0-20.65,0.22-30.97c0.22-6.8-0.4-13.6201,0.49-20.3801
		c1.03,3.6801,0.98,7.53,0.87,11.3301c-0.08,14.48,0.13,28.97-0.11,43.46l0.45,0.05C1237.46,411.01,1237.5699,384.48,1237.55,357.97
		z M981.55,416.64c-0.3901,2.35-1.6101,5.4301-4.52,5.16c-10.3401,0.1399-20.7,0.0499-31.04,0.5499
		c-8.5,0.98-17.0801,0.38-25.6,1.16c-9.12,0.87-18.33,0.22-27.42,1.45c-24.72,0.88-49.36,3.13-74,5.26
		c-7.72,0.2-15.3199,1.8101-23.04,2.03c-11.08,0.4099-21.98,2.6-32.97,3.8999c-4.25,0.5701-8.3999,1.75-12.6399,2.3501
		c-2.6501,1.1599-8.3701,1.73-8.0701-2.49c-0.45-18.3101,0.9-36.75-1.75-54.9399c-0.6699-5.3101,0.3401-10.7001-0.52-15.9901
		c-1.12-3.66-5.72-3.62-8.25-5.8199c-2.04-2.8501,0.55-5.9399,2.5701-7.91c3.22-3.73,8.1399-5.0599,12.6399-6.58
		c16.91-4.03,34.24-5.8101,51.3701-8.5601c5.1199-1.35,10.4399-1.37,15.6399-2.22c12.3-1.8101,24.8-1.5701,37.0601-3.6799
		c6.37-0.1801,12.72-0.5701,19.05-1.42c7.6099-1.05,15.34-0.54,22.9399-1.7301c10.23-1.71,20.64-0.8599,30.95-1.3499
		c9.98-1.26,20.0601-0.5901,30.1001-0.7001c5.6599-0.3099,10.9099,2.09,16.25,3.61c2.9399,0.8501,3.29,4.36,4.4299,6.74
		c2.1101,0.41,4.64,0.04,6.3201,1.67c1.1299,10.38,0.4299,20.85,1.4299,31.24c0.46,5.5299,0.1001,11.08,0.24,16.62
		C982.73,395.54,983.14,406.1699,981.55,416.64z"/>
	<path fill="#D80100" stroke="#D80100" stroke-width="0.0938" d="M1081.33,477.38c7.76-0.18,15.53-0.22,23.29,0.19
		c9.75,0.71,19.63-0.51,29.28,1.51c1.6699,13.59,1.02,27.27,1.25,40.91c-0.0801,19.34,0.09,38.68,0.0699,58.02
		c-0.3199,8.67,1.0801,17.29,0.8,25.97c0.04,16-0.15,32,0.09,47.99c1.09,11.3101,0.5601,22.67,0.64,34.01
		c0.09,51.67,0.46,103.34,0.41,155.02c1.3099,13.61,0.72,27.3,0.9199,40.96c-0.0199,15.69,0.13,31.38,0.04,47.08
		c0.02,4.3,0.6801,8.57,0.8199,12.87c0.17,43.69,0.2201,87.3801,0.2301,131.07c0.0599,5.34,0.88,10.65,0.8099,16.01
		c-0.1699,21.01,0.17,42.01,0.14,63.03c0.3101,20.97-0.66,41.99,0.8199,62.9299c0.25,37.28-0.1599,74.5701,0.5801,111.8501
		c1.98,16,0.7999,32.1399,1.22,48.22c0.26,9.98-0.25,19.98,0.29,29.96c1.0599,8.64,0.58,17.34,0.63,26.03
		c-0.02,13.54,0.1699,27.09-0.0601,40.63c0,4.01,5.35,3.4299,8.13,3.6799c-2.03,0.4601-4.1,0.6101-6.13,0.91
		c-6.9199-0.6-13.52,1.9-20.23,3.1c-12.38,2.25-24.8199,4.11-37.28,5.8c-3.21-17.86-1.99-36.1-2.26-54.15
		c0.42-9.6799-1.12-19.2999-0.88-28.97c-0.11-28.01-0.0699-56.02-0.1499-84.03c-1.2101-12.62-0.54-25.29-0.79-37.9399
		c-0.08-40.6901-0.25-81.38-0.17-122.0701c-0.33-6.6599-1.22-13.3099-0.8199-19.99c-0.14-59.3099,0.0699-118.62-0.35-177.93
		c0.0399-9.22-0.3401-18.49,0.98-27.64c-20.41-1.3799-40.98,2.79-61.26-0.81c-3.73-0.4-3.43-4.74-3.88-7.5
		c-1.34-19.34-1.74-38.75-1.79-58.14c0.16-4.78-1.35-9.67-0.11-14.36c4.66-1.41,9.61,0.58,14.4,0.28
		c15.34,0,30.6899-0.02,46.03-0.15c1.73-0.24,4.83,0.2,5.2899-2.04c-0.9199-20.53-0.11-41.12-0.45-61.67
		c-0.03-55.35-0.16-110.69-0.09-166.04c-0.3-6.35-1.0701-12.68-0.78-19.04c0.04-30.98,0.03-61.96-0.03-92.94
		C1081.29,499.13,1080.36,488.23,1081.33,477.38 M1078.9399,853.16c-20.2999-0.19-40.6,0.22-60.89-0.08
		c0.29,14.3-0.41,28.65,0.89,42.92c0.27,5.55-0.26,11.15,0.58,16.68c0.77,5.53,0.56,11.25,2.15,16.65
		c6.58,1.85,13.53,1.48,20.29,2.26c8.36,0.93,16.67-1.1,25.04-0.55c5.14,0.31,10.24-1.47,15.37-0.54
		c5.89,1.05,11.84-0.84,17.29-2.93c1.48-0.41,1.11-2.36,1.34-3.5c0.05-12.69-0.15-25.39-0.03-38.08
		c-0.03-4.35-1.09-8.63-0.9199-12.98c0.33-5.72-1.0901-11.33-1.12-17.03c0.2699-2.73-2.16-5.3-4.92-4.98
		C1088.8,850.24,1083.99,852.61,1078.9399,853.16z"/>
	<path fill="#D80100" stroke="#D80100" stroke-width="0.0938" d="M853.39,800.46c4.2-0.51,7.29,3.46,9.9,6.2
		c1.36,5.69,0.03,11.61,0.52,17.39c2.66,2.38,6.4-1.35,9.56-1.47c7.42-0.68,15.73-1.57,22.31,2.73c2.92,2.51,5.76,5.67,6.35,9.64
		c1.36,7.85,1.02,16.04-1.58,23.61c-1.21,4.8-4.03,8.97-7.57,12.36c-5.13,6.94-3.44,16.11-5.95,23.94
		c-1.32,4.02-6.55,3.67-9.98,4.04c-8.01-0.29-15.92,1.31-23.92,1.11c-10.23,0.02-20.4901,0.19-30.7-0.42
		c-3.34-2.2401-3.62-6.83-4.49-10.42c-1.33-5.87-1.3-11.9-2.14-17.81c-2.75-2.89-7-4.46-8.74-8.35c-1.61-3.85-3.11-7.84-3.7-11.98
		c0.45-8.46,0.44-18.35,7.59-24.2401c6.89-4.25,15.35-3.75,23.13-3.59c3.29-0.07,6.59,1.57,9.84,0.68c1.13-3.08-0.8-6.35-0.3-9.55
		c0.53-3.71,0.06-8.03,2.74-11.01C847.91,801.11,850.88,800.9,853.39,800.46 M866.06,839.76c4.64-0.24,9.28-0.96,13.93-0.53
		c3.36,0.3,6.45,1.84,9.79,2.25c1.68-0.47,0.4-2.24-0.1-3.16c-2.98-3.84-7.48-7.57-12.7-6.38
		C872.11,832.3,868.95,836.31,866.06,839.76 M817.23,839.32c-1.46,1.07-2.23,4-0.2,4.91c3.0699-0.79,5.8799-2.39,9.0099-2.96
		c4.12-0.82,8.42-0.7,12.39-2.25c-3.14-3.43-8.01-4.37-12.37-5.2C822.59,834.52,819.89,837.14,817.23,839.32z"/>
	<path fill="#D80100" stroke="#D80100" stroke-width="0.0938" d="M879.74,908.65c3.75-0.53,7.47,0.41,11.21,0.52
		c4,0.19,8.18-0.41,12,1.15c3.51,1.35,7.46,1.79,10.48,4.21c5.09,3.6,9.85,8.49,11.03,14.83c1.21,7.31,0.53,15.67-4.67,21.39
		c-2.24,3.35-5.5,5.72-8.35,8.48c-0.11,6.84,6.72,10.52,8.87,16.48c1.78,4.73,4.72,9.07,8.49,12.45c2.86,1.13,6.06,1.06,8.96,2.17
		c1.81,1.61,3.54,4.81,1.6,6.97c-0.88,1.13-1.98,2.21-3.42,2.52c-4.49,1.14-9.26,2.96-13.83,1.13c-4.36-1.46-4.29-7-7.44-9.75
		c-6.19-5.62-9.82-13.36-15.44-19.49c-3.04-3.29-5.76-8.08-10.9-7.82c-0.2,4.7-0.49,9.42,0.26,14.1c0.77,5.07-0.95,10.56,1.05,15.38
		c2.84,3.37,7.29-3.33,9.55,0.44c0.91,3.28,0.72,6.77,0.64,10.15c0.14,1.74-1.08,3.52-2.86,3.74c-8.5099,1.56-17.23,1.89-25.83,1.03
		c-1.55-0.21-3.08-0.65-4.42-1.44c-0.8799-3.29-0.36-6.75-0.4399-10.11c2.59-1.19,5.39-0.96,8,0.09c0.79-0.98,1.87-1.92,1.81-3.28
		c0.11-4.35-1.08-8.62-0.92-12.97c0.17-6-0.5-11.97-1.38-17.89c-1.49-9.7,0.33-19.6-1.33-29.28c-0.65-3.92,0.03-7.89-0.43-11.8
		c-0.78-2.68-3.89-2.86-6.19-2.64c-1.97-2.68-1.65-6.06-1.63-9.18C869.29,908.9,874.57,909.37,879.74,908.65 M890.39,923.33
		c-0.85,0.94-1.63,2.2-1.34,3.55c1.22,6.88-0.48,13.96,1.17,20.81c0.95,1.39,2.77,2.46,4.5,1.91c4.1-1,8.9-1.63,11.57-5.3
		c2.3-2.5,2.23-6.16,1.84-9.31C907.37,926.97,897.92,920.69,890.39,923.33z"/>
	<path fill="#D80100" stroke="#D80100" stroke-width="0.0938" d="M789.97,911.71c14.02-0.22,28.14,0.99,42.08-0.9901
		c1.9,0.01,4.53-0.3799,5.63,1.64c1.64,2.63,3.28,5.48,3.59,8.63c0.22,2.19-2.5,2.91-4.19,3.11c-1.62-1.11-3-2.52-4.6-3.63
		c-7.97,2.17-16.27,2.32-24.47,2.45c-1.09,4.98,0.15,10.1-0.86,15.1c-0.19,3.21-1.33,7.81,2.13,9.71c4.3,1.02,9.23,0.12,12.92-2.34
		c0.82-2.61,0.95-5.38,1.38-8.06c1.84,0.03,3.88-0.54,5.59,0.42c1.73,2.47,1.15,5.53,0.84,8.32c-0.88,7.15,1.37,14.23,0.68,21.4
		c-3.65,1.46-7.11,5.59-11.32,3.76c0.6-2.69,1.37-5.49,0.51-8.2c-3.77,0.2599-7.52,0.54-11.29,0.49c-1.53,3.23-0.56,6.99-0.78,10.46
		c0.29,6.58-0.65,13.25,0.37,19.77c2.69,3.05,7.17,2.57,10.85,2.53c9.84-0.22,17.33-8.17,26.99-9.2401
		c-0.62,7.06-4.88,13.05-7.71,19.38c-8.25,2.22-16.83,2.64-25.3,3.39c-9.03,0.51-18.02-0.89-26.97-1.86
		c-5.47-0.6-6.94-7.52-4.98-11.86c3.59-0.57,7.16-1.29,10.68-2.27c0.03-12.93,0.02-25.87,0.21-38.8
		c-0.24-7.91,1.83-15.75,0.61-23.65c-0.82-3.97,1.32-7.54,2.17-11.27c-0.49-3.89-6.83-2.08-7.46-5.88
		C787.55,912.9,788.33,911.39,789.97,911.71z"/>
	<path fill="#9A0000" stroke="#9A0000" stroke-width="0.0938" d="M944.38,489.02c2.45,0.7,5.08,1.84,4.42,4.95
		c0.2,91.01-0.02,182.04,0.09,273.05c0.45,2.79-1.66,5.03-4.21,5.71c-3.83,0.88-7.79,0.38-11.68,0.46
		c-53.66,0.1-107.32-0.07-160.98,0.07c-2.66-0.09-7.16,0.55-7.28-3.28c-0.84-3.48,3.6-4.34,6.16-4.25
		c53.02,0.03,106.05-0.01,159.08,0.01c3.52,0.16,7.12,1.08,10.55-0.31c0.79-12.79,0.14-25.63,0.35-38.44
		c0.02-77.32-0.03-154.65,0.02-231.97C940.72,492.46,943.02,490.87,944.38,489.02z"/>
	<path fill="#921A19" stroke="#921A19" stroke-width="0.0938" d="M922.92,500.51c2.47,2.98,1.09,7.03,1.3,10.54
		c0.05,76.65-0.09,153.29,0.07,229.93c-0.03,1.28-0.47,2.4-1.35,3.37c-0.24-17.13-0.03-34.2599-0.1-51.39
		C922.89,628.81,922.73,564.66,922.92,500.51z"/>
	<path fill="#FCE6E8" stroke="#FCE6E8" stroke-width="0.0938" d="M922.8401,692.96c0.0499-64.1499-0.1101-128.3,0.0798-192.45
		c-1.3699,0.1599-2.71,0.3101-4.0499,0.45c-46.14,3.14-92.27,6.3301-138.4,9.51c-0.7,77.91-1,155.8301-1.7,233.75
		c48.0601,0.14,96.12-0.1299,144.1699,0.13C922.7,727.22,922.9099,710.0901,922.8401,692.96z"/>
	<path fill="#A00D09" stroke="#A00D09" stroke-width="0.0938" d="M1240.64,633.02c0.23-7.54-0.75-15.18,0.88-22.62
		c1.08,28.52,0.66,57.09,1.64,85.62c0.3099,34.58,1.1599,69.15,1.6899,103.73c0.1,15.17,0.0701,30.35,0.86,45.51
		c1.0601,52.57,2.14,105.15,3.16,157.73c0.3101,8.21,0.5601,16.45,0.4301,24.67c-0.9601,7.45,0.13,14.98-0.66,22.45
		c-2.08-31.33-1.02-62.77-1.99-94.14c-1.72-20.25-1.14-40.6-1.41-60.91c-0.4399-22.71-0.59-45.42-1.83-68.11
		c-0.17-38.65-0.14-77.31-2.02-115.92C1241.08,685.03,1241.3199,659.02,1240.64,633.02z"/>
	<path fill="#A00D09" stroke="#A00D09" stroke-width="0.0938" d="M1252.62,1243.99c-0.13-2.95,0.37-5.86,1.01-8.71
		c1.05,10.1799,0.47,20.47,0.96,30.7c0.8,33.66,1.54,67.3301,2.27,100.99c0.8201,17.36,0.3101,34.78,1.5601,52.13
		c-5.62,4.3201-10.1801,9.92-16.4801,13.39c3.6001-5.51,8.9601-9.4399,13.29-14.29c1.98-1.87,1.3201-4.7999,1.36-7.21
		c-0.88-14.64-0.9-29.3099-1.33-43.96c0.1-27.05-1.4301-54.0601-2.03-81.0901C1253.14,1271.95,1253.13,1257.96,1252.62,1243.99z"/>
	<path fill="#EA9495" stroke="#EA9495" stroke-width="0.0938" d="M702.3,711.74c0.38,10.78,0.92,21.58,0.63,32.37
		c-0.83-6.01-0.54-12.09-0.62-18.13C702.27,721.23,701.61,716.47,702.3,711.74z"/>
	<path fill="#921616" stroke="#921616" stroke-width="0.0938" d="M704.91,830.97c0.77-10.35,0.05-20.72,0.55-31.0699
		c0.47,9.09,0.42,18.21,1.03,27.3c0.21,17.93,0.03,35.87,0.55,53.81c0.47,6.65,0.72,13.32,0.71,19.99
		c-0.05,6.69,0.94,13.33,0.85,20.02c-0.04,9.33,0.07,18.66,0.01,27.99c-0.07,6.16,0.62,12.35-0.33,18.48
		c-0.86-9.46-0.5-18.99-0.89-28.48C706.47,903,705.8,866.98,704.91,830.97z"/>
	<path fill="#921616" stroke="#921616" stroke-width="0.0938" d="M709.62,991.52c1.65,5.36,0.78,11.02,0.95,16.54
		c0.17,16.98-0.31,34.0001,0.93,50.96c0.26,4.97-0.1,9.95,0.21,14.9299c1.69,16.3101,0.54,32.7301,0.95,49.0901
		c-0.23,7.83,1.1201,15.73-0.34,23.51c-1-15.8201-0.6-31.7201-1.4-47.5601c-0.42-26.33-1.2-52.65-1.68-78.98
		c-0.02-3.8-0.3-7.58-0.57-11.35C709.48,1002.97,708.93,997.21,709.62,991.52z"/>
	<path fill="#F0A6A4" stroke="#F0A6A4" stroke-width="0.0938" d="M1244.85,799.75c1.16,6.31,0.35,12.8,0.9401,19.18
		c-0.12,8.78,0.9399,17.59-0.0801,26.33C1244.92,830.1,1244.95,814.92,1244.85,799.75z"/>
	<path fill="#E60000" stroke="#E60000" stroke-width="0.0938" d="M1078.9399,853.16c5.05-0.55,9.8601-2.92,15.0701-2.16
		c2.76-0.32,5.1899,2.25,4.92,4.98c0.0299,5.7,1.45,11.31,1.12,17.03c-0.17,4.35,0.8899,8.63,0.9199,12.98
		c-0.12,12.69,0.0801,25.39,0.03,38.08c-0.23,1.14,0.14,3.09-1.34,3.5c-5.4501,2.09-11.4,3.98-17.29,2.93
		c-5.13-0.93-10.23,0.85-15.37,0.54c-8.37-0.55-16.6801,1.48-25.04,0.55c-6.76-0.78-13.71-0.41-20.29-2.26
		c-1.59-5.4-1.38-11.12-2.15-16.65c-0.84-5.53-0.31-11.13-0.58-16.68c-1.3-14.27-0.6-28.62-0.89-42.92
		C1038.34,853.38,1058.64,852.97,1078.9399,853.16 M1070.29,899.27l-0.02-1.36c-5.47,0.2-10.99,0.09-16.41,0.91
		c-1.16,4.2-1.78,8.77-0.76,13.06c6.16,2.02,12.8,2.6,19.27,2.2c-0.12-0.59-0.36-1.78-0.48-2.38c0.39,0.44,1.16,1.31,1.54,1.75
		c-0.0901,0.41-0.28,1.24-0.38,1.65c1.7,1.88,3.1599,4.2401,5.58,5.3c2.65,0.73,5.04-1.35,6.3099-3.4901
		c3.27-4.29,2.0901-9.99,2.3701-15c-0.2201-3.19,0.47-6.8799-1.6201-9.58c-4.1499-0.85-8.47-0.81-12.6499-0.34
		C1070.2,892.98,1070.72,896.83,1070.29,899.27z"/>
	<path fill="#CC0001" stroke="#CC0001" stroke-width="0.0938" d="M1070.29,899.27c0.4299-2.44-0.0901-6.29,2.75-7.28
		c4.1799-0.47,8.5-0.51,12.6499,0.34c2.0901,2.7,1.4,6.39,1.6201,9.58c-0.28,5.01,0.8999,10.71-2.3701,15
		c-1.2699,2.14-3.6599,4.22-6.3099,3.4901c-2.42-1.06-3.88-3.42-5.58-5.3c0.1-0.41,0.2899-1.24,0.38-1.65
		c-0.38-0.44-1.15-1.31-1.54-1.75C1070.97,907.62,1070.3,903.46,1070.29,899.27z"/>
	<path fill="#FF4C4B" stroke="#FF4C4B" stroke-width="0.0938" d="M1053.86,898.82c5.42-0.82,10.9401-0.71,16.41-0.91l0.02,1.36
		c0.01,4.19,0.6799,8.35,1.6,12.43c0.12,0.6,0.36,1.79,0.48,2.38c-6.47,0.4-13.11-0.18-19.27-2.2
		C1052.08,907.59,1052.7,903.02,1053.86,898.82z"/>
	<path fill="#D70101" stroke="#D70101" stroke-width="0.0938" d="M851.75,934.29c5.68-0.45,11.44-2.7,17.13-1.28
		c-0.08,1.46-0.14,2.93-0.19,4.41c-1.69,0.69-3.46,1.27-4.96,2.34c-0.54,1.66-0.08,3.45-0.09,5.18c0.46,6.94-0.44,13.95,0.42,20.87
		c2.02,1.38,4.11,2.78,5.04,5.18c-3.86,2.18-8.48,1.81-12.72,1.59c-2.23-0.11-2.83-2.45-2.07-4.22c1.13-0.89,2.39-1.59,3.54-2.47
		c0.65-6.25,0.09-12.56,0.21-18.84c-0.13-2.53,0.29-5.18-0.47-7.62c-1.96-1.11-4.07-1.86-6.13-2.71
		c-1.96,1.86-5.42,1.7401-7.01,3.63c-0.53,8.51-0.67,17.14,0.72,25.59c0.25,2.2,3.09,1.78,4.64,2.57c-0.07,1.34-0.13,2.69-0.19,4.06
		c-3.63,0.2-7.25,0.63-10.88,0.77c-2.1,0.18-4.53-1.64-3.42-3.89c1.16-0.9,2.47-1.6,3.65-2.48c0.45-4.33,0.05-8.6899,0.22-13.02
		c-0.04-4.86,0.61-9.9-1.26-14.51c-1.61-0.77-4.57-0.27-4.79-2.57c-0.42-1.65,1.16-3.12,2.78-2.77
		C841.19,934.06,846.52,933.27,851.75,934.29z"/>
	<path fill="#333333" stroke="#333333" stroke-width="0.0938" d="M718.31,1410.85c2.04,5.4301,5.18,10.4501,8.86,14.9401
		c9.7,10.7999,22.29,18.4299,35.11,24.95c11.8199,5.5,23.78,10.8,36.4,14.21c9.03,3.12,18.31,5.39,27.61,7.54
		c0.13,0.21,0.39,0.62,0.52,0.8201c2.94,0.1899,5.89,0.58,8.76,1.34c8.37,2.1,16.98,2.98,25.42,4.74
		c3.91,0.78,7.89,1.0499,11.87,1.1899c-0.58,0.27-1.15,0.5701-1.71,0.88c5.36-0.1599,10.48,1.8101,15.8199,1.9501
		c4.34,0.1899,8.66,0.71,12.9901,1.1899c13.95,1.75,28.03,2.1801,42,3.72c7.58,1.41,15.32,0.9801,22.98,1.2101
		c8.04-0.15,16.02,1.08,24.06,0.84c15.35,0.04,30.7,0.23,46.05-0.15c8.1-0.9199,16.2999-0.1899,24.37-1.4099
		c6.58-0.52,13.2-0.4801,19.74-1.51c5.7-0.9701,11.52-0.76,17.23-1.76c10.23-1.74,20.59-2.8,30.73-5.05
		c6.23-1.09,12.63-1.65,18.48-4.26c2.03-0.2999,4.1-0.45,6.13-0.91c6.71-2.3999,13.73-3.75,20.5-5.9399
		c0.14-0.17,0.42-0.52,0.5601-0.6901c15.45-4.3099,30.09-11.1499,44.1799-18.75c8.52-5.5199,17.4301-10.58,24.97-17.45
		c6.3-3.47,10.8601-9.0699,16.4801-13.39c2.6699,9.05,2.64,18.63,3.64,27.9601c0.2999,4.74,0.9299,9.46,0.84,14.23
		c-0.36-1.25-0.73-2.48-1.11-3.6801c-5.7101,6.98-11.29,14.14-18.17,20.04c-24.17,21.45-54.73,33.99-85.49,42.6699
		c-41.75,11.3601-85.08,15.63-128.21,16.92c-51.9901,0.97-104.11-1.35-155.61-8.66c-37.64-5.5-75.19-13.75-110.33-28.6
		c-16.31-7.01-32.07-15.7-45.63-27.25c-1.45-1.16-2.93-2.25-4.41-3.3099c-0.21,2.8999-0.39,5.83-0.45,8.76
		c-0.39-8.7201,0-17.4501-0.36-26.17c-0.49-9.39,1.03-18.72,2.72-27.92C716.6,1419.65,718.16,1415.37,718.31,1410.85z"/>
	<path fill="#313131" stroke="#313131" stroke-width="0.0938" d="M1266.86,1543.79c0.92,5.3099,0.63,10.75,0.89,16.12
		c1.14,30.37,1.96,60.75,2.17,91.15c0.34,13.3199,0.0599,26.6599-0.37,39.99c-0.4,4.1599,0.09,8.72-2.17,12.45
		c1.75-48.14-0.0699-96.3101-0.23-144.46C1266.75,1553.96,1266.48,1548.87,1266.86,1543.79z"/>
	<g>
		<g>
			<path fill="#D10202" d="M1044.8484,376.1351c0,13.5645-8.2217,21.6494-19.3726,22.3459
				c-11.3913,0.7156-18.5783-7.3806-18.579-19.2682c0.0001-12.4133,7.7867-21.8191,19.1783-22.5275
				C1037.8877,355.9608,1044.8486,364.6239,1044.8484,376.1351z M1014.6861,378.5067c0.0002,8.2229,4.1331,14.4497,11.2094,14.0084
				c7.1357-0.4413,11.1553-7.235,11.155-15.6982c0-7.6162-3.7793-14.6355-11.155-14.1807
				C1018.5799,363.0935,1014.6859,370.1709,1014.6861,378.5067z"/>
			<path fill="#D10202" d="M1051.2103,356.0632c7.7808-0.3119,15.5642-0.5446,23.3486-0.6986c0,2.0199,0,4.0399,0,6.0601
				c-5.3231,0.1055-10.6451,0.2476-15.967,0.4266c0.0001,3.7197,0.0001,7.4395,0,11.1592
				c4.9617-0.1669,9.9243-0.3019,14.8872-0.4048c0,2.0199,0,4.0402,0,6.0601c-4.9628,0.1029-9.9254,0.2379-14.8872,0.4048
				c0.0001,5.7197,0.0001,11.4395,0,17.1592c-2.4607,0.0828-4.9211,0.1736-7.3816,0.272
				C1051.2103,383.0222,1051.2103,369.5427,1051.2103,356.0632z"/>
			<path fill="#D10202" d="M1081.7639,355.2445c7.7852-0.1053,15.5708-0.1322,23.3564-0.0796c0,2.02,0,4.04,0,6.0601
				c-5.3235-0.0355-10.6475-0.0348-15.9712,0.0033c0,3.7197,0,7.4395,0,11.1592c4.9637-0.0354,9.9276-0.0388,14.8914-0.0101
				c-0.0001,2.02-0.0001,4.04,0,6.0601c-4.9639-0.0288-9.9277-0.0254-14.8914,0.0101c0,5.7197,0,11.4395,0,17.1592
				c-2.4617,0.0176-4.9238,0.043-7.3853,0.0763C1081.7639,382.2035,1081.7639,368.724,1081.7639,355.2445z"/>
			<path fill="#D10202" d="M1119.7117,355.3552c0,13.4795,0,26.959,0,40.4385c-2.4618-0.0479-4.924-0.0874-7.3857-0.1195
				c0-13.4796,0-26.9591,0-40.4385C1114.7881,355.2678,1117.25,355.3074,1119.7117,355.3552z"/>
			<path fill="#D10202" d="M1157.1591,395.9283c-1.7397,0.8099-5.5789,1.5131-10.4387,1.3054
				c-12.8413-0.5427-20.646-8.7295-20.6455-21.0385c-0.0011-13.3138,9.2445-21.1586,21.6056-20.6184
				c4.86,0.2123,8.3385,1.4137,9.8389,2.2715c-0.5398,1.9318-1.0798,3.8641-1.6198,5.7965
				c-1.9193-0.9368-4.5592-1.7878-7.9194-1.9352c-8.219-0.3608-14.1628,4.6282-14.1624,14.3445
				c0.0007,8.8843,5.2217,14.7253,14.1028,15.1113c3.0009,0.1324,6.1188-0.3177,8.0397-1.1185
				C1156.36,392.0071,1156.7594,393.9678,1157.1591,395.9283z"/>
			<path fill="#D10202" d="M1186.0557,381.0527c-5.0719-0.391-10.1459-0.7489-15.2217-1.0728c0,3.96,0,7.9199,0,11.8799
				c5.6754,0.3623,11.349,0.7666,17.0198,1.2129c0,2.0199,0,4.0397,0,6.0596c-8.1274-0.6396-16.26-1.1929-24.3961-1.66
				c0-13.4795,0-26.959,0-40.4385c7.8362,0.4498,15.6689,0.9799,23.4971,1.5897c0,2.02,0,4.04,0,6.0601
				c-5.3715-0.4187-10.745-0.7996-16.1207-1.1426c0,3.4799,0,6.9596,0,10.4395c5.0754,0.324,10.1497,0.6814,15.2217,1.0728
				C1186.0557,377.0531,1186.0557,379.0529,1186.0557,381.0527z"/>
		</g>
	</g>
	<g>
		<path fill="#C8B1B3" d="M798.7427,524.1582l1.4736-0.0693l0.3213,6.8408l3.3184-0.1563l0.0576,1.2339l-4.792,0.2256
			L798.7427,524.1582z"/>
		<path fill="#C8B1B3" d="M808.2534,531.8032l-0.125-0.6421l-0.0361,0.0015c-0.3389,0.4722-0.9336,0.8237-1.6885,0.8594
			c-1.1748,0.0552-1.873-0.7642-1.915-1.6504c-0.0693-1.4736,1.2012-2.2778,3.3584-2.3677l-0.0039-0.0952
			c-0.0186-0.3838-0.2041-1.0112-1.2344-0.9629c-0.5752,0.0273-1.166,0.2344-1.5498,0.5054l-0.332-0.9453
			c0.4189-0.2832,1.1621-0.5708,2.085-0.6143c1.8682-0.0879,2.4639,1.0732,2.5234,2.3428l0.0986,2.1084
			c0.0254,0.5273,0.0732,1.0415,0.1494,1.3979L808.2534,531.8032z M807.9282,528.9609c-1.0439,0.0249-2.0273,0.2998-1.9854,1.186
			c0.0273,0.5747,0.4111,0.8213,0.8779,0.7993c0.5869-0.0273,1-0.4312,1.1123-0.8569c0.0313-0.1094,0.0371-0.23,0.0332-0.3257
			L807.9282,528.9609z"/>
		<path fill="#C8B1B3" d="M810.9253,530.3208c0.3447,0.188,0.9893,0.374,1.5166,0.3491c0.6465-0.0303,0.9229-0.3076,0.9043-0.6909
			c-0.0186-0.3955-0.2676-0.5874-0.998-0.8057c-1.1572-0.3418-1.665-0.9419-1.6855-1.6255
			c-0.0479-1.0303,0.7646-1.873,2.1182-1.9365c0.6465-0.0308,1.2178,0.1108,1.5615,0.2744l-0.2383,1.0562
			c-0.2588-0.1323-0.7354-0.3018-1.25-0.2778c-0.5273,0.0249-0.8027,0.29-0.7861,0.6494c0.0176,0.3721,0.3018,0.5381,1.0566,0.7671
			c1.0723,0.3335,1.5889,0.8501,1.6416,1.7119c0.0498,1.0542-0.7412,1.8594-2.2861,1.9321c-0.707,0.0332-1.3506-0.1045-1.793-0.3242
			L810.9253,530.3208z"/>
		<path fill="#C8B1B3" d="M817.395,523.8574l0.0781,1.665l1.4023-0.0659l0.0518,1.1021l-1.4023,0.0659l0.1211,2.5762
			c0.0332,0.7065,0.2432,1.0688,0.8057,1.0425c0.252-0.0122,0.4424-0.0566,0.5723-0.0991l0.0771,1.1255
			c-0.2119,0.0942-0.5928,0.1719-1.0605,0.1938c-0.5381,0.0254-1.002-0.1333-1.292-0.4194
			c-0.3271-0.3213-0.4961-0.8408-0.5322-1.6079l-0.1289-2.7437l-0.8379,0.0396l-0.0518-1.1025l0.8379-0.0391l-0.0615-1.3179
			L817.395,523.8574z"/>
		<path fill="#C8B1B3" d="M828.5825,530.6074c-0.3398,0.1963-1.0977,0.4116-2.0674,0.4575
			c-2.5645,0.1206-4.1973-1.4116-4.3135-3.8672c-0.125-2.6597,1.6455-4.3521,4.1133-4.4683
			c0.9707-0.0454,1.6748,0.1255,1.9814,0.2671l-0.2676,1.1895c-0.3916-0.1499-0.9258-0.2686-1.5957-0.2368
			c-1.6426,0.0771-2.7793,1.1626-2.6885,3.104c0.083,1.7729,1.1797,2.8613,2.9521,2.7783c0.5986-0.0283,1.2158-0.1768,1.5908-0.375
			L828.5825,530.6074z"/>
		<path fill="#C8B1B3" d="M835.0112,527.5674c0.1006,2.145-1.3633,3.1738-2.8496,3.2437c-1.6533,0.0776-2.9766-1-3.0645-2.8691
			c-0.0898-1.9165,1.1133-3.1499,2.874-3.2329C833.7085,524.6274,834.9282,525.7944,835.0112,527.5674z M830.6177,527.834
			c0.0527,1.1265,0.6436,1.9512,1.542,1.9092c0.8389-0.0396,1.3867-0.894,1.3311-2.0684c-0.042-0.9106-0.499-1.9331-1.5049-1.8862
			C830.9438,525.8379,830.5718,526.8643,830.6177,527.834z"/>
		<path fill="#C8B1B3" d="M835.9644,521.9761l1.4854-0.0698l0.4004,8.5059l-1.4854,0.0698L835.9644,521.9761z"/>
		<path fill="#C8B1B3" d="M839.0454,521.8315l1.4854-0.0703l0.4004,8.5059l-1.4863,0.0703L839.0454,521.8315z"/>
		<path fill="#C8B1B3" d="M843.4497,527.6392c0.085,1.0527,0.9336,1.4688,1.8672,1.4253c0.6836-0.0322,1.1709-0.1509,1.6055-0.3394
			l0.2637,1.0078c-0.4941,0.2275-1.1807,0.4155-2.0195,0.4551c-1.8936,0.0889-3.0615-1.0205-3.1455-2.8057
			c-0.0762-1.6172,0.835-3.1851,2.7041-3.2729c1.8926-0.0889,2.5889,1.4395,2.6494,2.7212c0.0127,0.2754-0.001,0.4922-0.0195,0.625
			L843.4497,527.6392z M845.9653,526.4888c-0.0137-0.5396-0.2949-1.415-1.2773-1.3691c-0.9102,0.043-1.2549,0.8877-1.2861,1.4897
			L845.9653,526.4888z"/>
		<path fill="#C8B1B3" d="M852.9907,529.5205c-0.3047,0.1582-0.9092,0.3423-1.6396,0.377c-1.8203,0.0854-3.0605-1.021-3.1465-2.8301
			c-0.082-1.749,1.0518-3.1709,3.1006-3.2671c0.5391-0.0254,1.0957,0.0688,1.4385,0.2085l-0.2119,1.1147
			c-0.2451-0.0967-0.5977-0.2002-1.125-0.1753c-1.126,0.0527-1.7578,0.9111-1.6963,1.9766c0.0566,1.1982,0.8682,1.8442,1.874,1.7969
			c0.5156-0.0244,0.8691-0.1489,1.1514-0.2822L852.9907,529.5205z"/>
		<path fill="#C8B1B3" d="M855.6089,522.061l0.0781,1.665l1.4014-0.0659l0.0518,1.1021l-1.4014,0.0659l0.1211,2.5762
			c0.0332,0.7065,0.2422,1.0688,0.8057,1.0425c0.251-0.0117,0.4414-0.0566,0.5713-0.0991l0.0771,1.1255
			c-0.2119,0.0942-0.5918,0.1719-1.0596,0.1938c-0.5391,0.0254-1.0029-0.1333-1.293-0.4194
			c-0.3271-0.3213-0.4951-0.8408-0.5313-1.6079l-0.1289-2.7437l-0.8389,0.0391l-0.0518-1.1016l0.8389-0.0396l-0.0625-1.3179
			L855.6089,522.061z"/>
		<path fill="#C8B1B3" d="M859.6978,521.9053c0.0205,0.4429-0.2861,0.8057-0.8018,0.8301
			c-0.4912,0.0229-0.8311-0.3096-0.8516-0.7524c-0.0215-0.4556,0.2979-0.8188,0.7891-0.8423
			C859.3364,521.1172,859.6636,521.4502,859.6978,521.9053z M858.479,529.4424l-0.2744-5.8345l1.4854-0.0698l0.2744,5.8345
			L858.479,529.4424z"/>
		<path fill="#C8B1B3" d="M866.9556,526.0659c0.1006,2.1445-1.3633,3.1738-2.8496,3.2437
			c-1.6533,0.0776-2.9766-1.0005-3.0645-2.8696c-0.0898-1.9165,1.1133-3.1499,2.874-3.2324
			C865.6528,523.1255,866.8716,524.2925,866.9556,526.0659z M862.561,526.3325c0.0527,1.1265,0.6445,1.9512,1.543,1.9087
			c0.8389-0.0396,1.3867-0.8936,1.3311-2.0679c-0.042-0.9106-0.499-1.9336-1.5049-1.8862
			C862.8872,524.3359,862.5151,525.3628,862.561,526.3325z"/>
		<path fill="#C8B1B3" d="M868.1167,524.8833c-0.0322-0.6709-0.0703-1.2334-0.1299-1.7354l1.2939-0.0605l0.1123,0.8711l0.0361-0.002
			c0.2305-0.4668,0.8398-1.0479,1.8096-1.0938c1.0186-0.0479,2.1035,0.562,2.1904,2.4067l0.1631,3.4624l-1.4736,0.0693
			l-0.1553-3.2949c-0.0391-0.8384-0.3809-1.4585-1.1826-1.4209c-0.5879,0.0278-0.9756,0.4663-1.1104,0.917
			c-0.042,0.1338-0.0449,0.314-0.0371,0.4819l0.1611,3.4263l-1.4854,0.0698L868.1167,524.8833z"/>
		<path fill="#C8B1B3" d="M878.4507,521.6475l-2.3008,0.1084l-0.0576-1.2339l6.0977-0.2866l0.0576,1.2339l-2.3232,0.1089
			l0.3213,6.8408l-1.4736,0.0693L878.4507,521.6475z"/>
		<path fill="#C8B1B3" d="M884.4624,520.7412c0.0205,0.4429-0.2861,0.8057-0.8018,0.8296c-0.4912,0.0234-0.8311-0.3091-0.8516-0.752
			c-0.0215-0.4556,0.2979-0.8188,0.7891-0.8423C884.1011,519.9531,884.4292,520.2861,884.4624,520.7412z M883.2437,528.2783
			l-0.2744-5.8345l1.4854-0.0698l0.2744,5.8345L883.2437,528.2783z"/>
		<path fill="#C8B1B3" d="M886.1196,524.0366c-0.0313-0.6709-0.0693-1.2334-0.1299-1.7349l1.2695-0.0596l0.1006,0.8599l0.0361-0.002
			c0.2656-0.4688,0.7686-1.0327,1.751-1.0791c0.7666-0.0356,1.3857,0.3672,1.667,1.0024l0.0244-0.0015
			c0.1885-0.3325,0.417-0.5835,0.6846-0.7646c0.3125-0.2422,0.6787-0.3799,1.1582-0.4023c0.9707-0.0454,1.9834,0.5674,2.0713,2.4365
			l0.1611,3.438l-1.4365,0.0679l-0.1514-3.2227c-0.0459-0.9707-0.4092-1.5298-1.1152-1.4966
			c-0.5039,0.0234-0.8574,0.4004-0.9941,0.8271c-0.0293,0.145-0.0566,0.3267-0.0488,0.4946l0.165,3.498l-1.4385,0.0674
			l-0.1582-3.3789c-0.0391-0.8145-0.3887-1.3735-1.0723-1.3418c-0.5508,0.0259-0.9023,0.4746-1.0146,0.8887
			c-0.0527,0.146-0.0684,0.3149-0.0605,0.4829l0.1621,3.4502l-1.4385,0.0674L886.1196,524.0366z"/>
		<path fill="#C8B1B3" d="M897.4019,525.1025c0.085,1.0532,0.9336,1.4692,1.8672,1.4253c0.6826-0.0317,1.1699-0.1509,1.6055-0.3389
			l0.2627,1.0078c-0.4932,0.2271-1.1807,0.4155-2.0186,0.4551c-1.8936,0.0889-3.0615-1.0205-3.1455-2.8057
			c-0.0762-1.6172,0.835-3.1851,2.7031-3.2729c1.8926-0.0889,2.5889,1.4395,2.6494,2.7212c0.0127,0.2754-0.001,0.4922-0.0186,0.6245
			L897.4019,525.1025z M899.9165,523.9526c-0.0127-0.54-0.2949-1.415-1.2773-1.3691c-0.9102,0.043-1.2549,0.8877-1.2861,1.4893
			L899.9165,523.9526z"/>
		<path fill="#C8B1B3" d="M818.9839,543.3125l-1.9629-6.6519l1.3076-0.0615l0.7822,3.0254c0.208,0.8101,0.4092,1.6611,0.5498,2.3252
			l0.0205-0.001c0.0762-0.7144,0.2285-1.5215,0.3779-2.3794l0.5859-3.0791l1.2881-0.0605l0.8145,3.0635
			c0.207,0.7905,0.3818,1.5327,0.5156,2.2568l0.0205-0.0005c0.085-0.7446,0.208-1.521,0.3496-2.3481l0.5557-3.0776l1.248-0.0586
			l-1.4912,6.814l-1.3174,0.062l-0.8477-3.1323c-0.2061-0.7607-0.3555-1.394-0.4697-2.1187l-0.0195,0.001
			c-0.0859,0.7241-0.1855,1.3789-0.3496,2.1572l-0.6299,3.2017L818.9839,543.3125z"/>
		<path fill="#C8B1B3" d="M826.9175,540.8477c0.0713,0.877,0.7783,1.2246,1.5566,1.188c0.5693-0.0269,0.9746-0.126,1.3379-0.2832
			l0.2197,0.8403c-0.4121,0.1899-0.9844,0.3462-1.6836,0.3794c-1.5771,0.0737-2.5518-0.8506-2.6211-2.3384
			c-0.0635-1.3477,0.6953-2.6538,2.2529-2.7271c1.5771-0.0742,2.1572,1.1992,2.208,2.2676c0.0107,0.229-0.001,0.4102-0.0156,0.5205
			L826.9175,540.8477z M829.0132,539.8892c-0.0107-0.4497-0.2451-1.1792-1.0635-1.1406c-0.7588,0.0356-1.0459,0.7393-1.0723,1.2407
			L829.0132,539.8892z"/>
		<path fill="#C8B1B3" d="M834.147,542.5996l-1.9629-6.6519l1.3076-0.0615l0.7822,3.0254c0.208,0.8105,0.4092,1.6611,0.5498,2.3257
			l0.0195-0.001c0.0771-0.7148,0.2295-1.522,0.3789-2.3794l0.5859-3.0796l1.2881-0.0605l0.8135,3.0635
			c0.208,0.791,0.3828,1.5327,0.5166,2.2573l0.0195-0.001c0.0859-0.7446,0.209-1.521,0.3506-2.3477l0.5557-3.0781l1.248-0.0586
			l-1.4912,6.814l-1.3174,0.062l-0.8477-3.1323c-0.2061-0.7603-0.3555-1.394-0.4697-2.1187l-0.0205,0.001
			c-0.085,0.7241-0.1846,1.3794-0.3486,2.1572l-0.6299,3.2017L834.147,542.5996z"/>
		<path fill="#C8B1B3" d="M842.4858,535.9741c0.0176,0.3691-0.2383,0.6714-0.668,0.6914c-0.4092,0.0195-0.6924-0.2578-0.71-0.627
			c-0.0176-0.3794,0.248-0.6816,0.6572-0.7012C842.1851,535.3179,842.4585,535.5952,842.4858,535.9741z M841.4702,542.2554
			l-0.2285-4.8618l1.2383-0.0581l0.2285,4.8618L841.4702,542.2554z"/>
		<path fill="#C8B1B3" d="M843.6948,535.0469l1.2373-0.0586l0.333,7.0884l-1.2373,0.0586L843.6948,535.0469z"/>
		<path fill="#C8B1B3" d="M846.2612,534.9258l1.2383-0.0581l0.333,7.0884l-1.2383,0.0581L846.2612,534.9258z"/>
		<path fill="#C8B1B3" d="M850.9663,535.1548c0.3867-0.0977,1.0918-0.1909,1.7803-0.2236c0.9092-0.0425,1.4736,0.041,1.9482,0.3389
			c0.4307,0.2295,0.7305,0.6558,0.7568,1.2251c0.0293,0.6191-0.333,1.2061-1.0488,1.5098l0.001,0.02
			c0.7168,0.1465,1.3926,0.6748,1.4365,1.6035c0.0273,0.5996-0.21,1.0811-0.585,1.4185c-0.459,0.4414-1.2373,0.688-2.4658,0.7456
			c-0.6787,0.0322-1.2002,0.0073-1.5117-0.0186L850.9663,535.1548z M852.3091,537.7534l0.6289-0.0293
			c0.8486-0.04,1.3096-0.4619,1.2822-1.0308c-0.0293-0.6294-0.5215-0.8965-1.3008-0.8599c-0.3594,0.0166-0.5674,0.0469-0.6963,0.083
			L852.3091,537.7534z M852.4546,540.8481c0.1611,0.0127,0.3711,0.0132,0.6504,0c0.7891-0.0371,1.4736-0.3701,1.4355-1.1987
			c-0.0371-0.7788-0.7314-1.0659-1.5801-1.0259l-0.6084,0.0283L852.4546,540.8481z"/>
		<path fill="#C8B1B3" d="M857.8022,539.396c0.0713,0.877,0.7783,1.2246,1.5566,1.188c0.5693-0.0269,0.9746-0.126,1.3379-0.2832
			l0.2197,0.8403c-0.4111,0.1895-0.9844,0.3462-1.6836,0.3789c-1.5771,0.0742-2.5518-0.8506-2.6211-2.3384
			c-0.0635-1.3477,0.6953-2.6538,2.2529-2.7266c1.5771-0.0742,2.1572,1.1992,2.208,2.2676c0.0107,0.229-0.001,0.4102-0.0156,0.5205
			L857.8022,539.396z M859.8989,538.437c-0.0107-0.4497-0.2461-1.1787-1.0645-1.1406c-0.7588,0.0356-1.0459,0.7393-1.0723,1.2412
			L859.8989,538.437z"/>
		<path fill="#C8B1B3" d="M865.2153,534.395l0.127,2.6958l2.8457-0.1338l-0.127-2.6958l1.2275-0.0576l0.3164,6.729l-1.2275,0.0576
			l-0.1396-2.9653l-2.8457,0.1338l0.1396,2.9653l-1.2275,0.0576l-0.3164-6.729L865.2153,534.395z"/>
		<path fill="#C8B1B3" d="M871.7368,538.7407c0.0713,0.877,0.7773,1.2246,1.5566,1.188c0.5693-0.0269,0.9746-0.126,1.3369-0.2827
			l0.2207,0.8398c-0.4121,0.1895-0.9844,0.3462-1.6836,0.3794c-1.5771,0.0737-2.5518-0.8506-2.6211-2.3384
			c-0.0635-1.3477,0.6953-2.6538,2.2529-2.7271c1.5771-0.0742,2.1572,1.1992,2.207,2.2676c0.0107,0.229-0.001,0.4102-0.0146,0.5205
			L871.7368,538.7407z M873.8325,537.7822c-0.0107-0.4497-0.2451-1.1792-1.0635-1.1406c-0.7588,0.0356-1.0459,0.7393-1.0723,1.2407
			L873.8325,537.7822z"/>
		<path fill="#C8B1B3" d="M875.9663,537.3315c-0.0313-0.6587-0.0635-1.1274-0.1143-1.5649l1.0684-0.0503l0.084,0.9263l0.04-0.002
			c0.207-0.7002,0.7598-1.0762,1.2783-1.1006c0.1201-0.0054,0.1904,0.001,0.291,0.0161l0.0547,1.1577
			c-0.1006-0.0151-0.2109-0.0298-0.3613-0.0229c-0.5889,0.0278-0.9707,0.4258-1.0547,0.9805
			c-0.0146,0.1108-0.0283,0.2412-0.0215,0.3809l0.1182,2.5166l-1.2285,0.0576L875.9663,537.3315z"/>
		<path fill="#C8B1B3" d="M880.3569,538.3354c0.0713,0.8774,0.7783,1.2246,1.5566,1.188c0.5693-0.0269,0.9746-0.126,1.3379-0.2827
			l0.2197,0.8398c-0.4111,0.1899-0.9844,0.3462-1.6836,0.3794c-1.5771,0.0737-2.5518-0.8506-2.6211-2.3384
			c-0.0635-1.3477,0.6953-2.6538,2.2529-2.7271c1.5771-0.0742,2.1572,1.1992,2.208,2.2676c0.0107,0.229-0.001,0.4102-0.0156,0.5205
			L880.3569,538.3354z M882.4536,537.377c-0.0117-0.4497-0.2461-1.1792-1.0645-1.1406c-0.7588,0.0356-1.0459,0.7393-1.0723,1.2407
			L882.4536,537.377z"/>
	</g>
	<g>
		<g>
			<path fill="#CBB4B4" d="M811.8086,555.8525l-6.9395,0.3276l-0.3564,3.6323c0.4141-0.0747,0.7725-0.1191,1.3008-0.1445
				c1.582-0.0742,3.1807,0.2119,4.4404,0.9595c1.4004,0.7959,2.4707,2.2754,2.5742,4.4683
				c0.1621,3.4414-2.5645,6.3794-7.0049,6.5889c-2.0811,0.0981-3.8555-0.3462-4.8232-0.8291l0.5713-2.6143
				c0.7969,0.3799,2.376,0.8335,4.0137,0.7563c1.999-0.0942,3.8604-1.3223,3.7578-3.4873
				c-0.0967-2.0537-1.6875-3.3418-5.2959-3.1714c-0.999,0.0469-1.7451,0.1382-2.4619,0.2822l0.7637-9.1597l9.3271-0.4399
				L811.8086,555.8525z"/>
			<path fill="#CBB4B4" d="M815.6318,559.6782c-0.0596-1.2773,0.7861-2.2349,2.0068-2.2925c1.249-0.0586,2.125,0.8174,2.2119,2.0933
				c0.0596,1.249-0.7305,2.2046-2.0068,2.2646C816.5947,561.8027,815.6914,560.9272,815.6318,559.6782z M816.0732,569.0313
				c-0.0596-1.2764,0.7852-2.2344,2.0059-2.292c1.249-0.0586,2.124,0.79,2.2129,2.0928c0.0576,1.2212-0.7305,2.2046-2.0068,2.2646
				C817.0361,571.1558,816.1309,570.2524,816.0732,569.0313z"/>
			<path fill="#CBB4B4" d="M823.0176,567.0352c0.7129,0.3828,2.4385,0.9976,4.1592,0.9165c2.6094-0.123,3.5947-1.644,3.5-3.0586
				c-0.1006-2.1372-2.1416-2.959-4.2236-2.8608l-1.582,0.0747l-0.1182-2.4976l1.5264-0.0718
				c1.583-0.0747,3.5459-0.8911,3.4609-2.6953c-0.0576-1.2212-1.0225-2.2046-2.9922-2.1113
				c-1.4717,0.0693-2.9121,0.7769-3.6377,1.312l-0.8936-2.4336c0.9932-0.7705,2.959-1.5308,5.125-1.6328
				c3.7197-0.1753,5.7305,1.7881,5.8418,4.1475c0.0889,1.8872-0.9473,3.4937-3.1318,4.376l0.0029,0.0557
				c2.2109,0.2847,4.0664,1.8662,4.1816,4.3086c0.1436,3.0532-2.2949,5.5884-6.7637,5.7988
				c-2.1934,0.1035-4.1104-0.4175-5.1113-1.0103L823.0176,567.0352z"/>
			<path fill="#CBB4B4" d="M849.6748,560.1582c0.2734,5.8008-1.8311,9.5439-6.1328,9.7471
				c-4.1631,0.1963-6.5605-3.4731-6.8486-8.9683c-0.2646-5.6064,1.9443-9.4932,6.1631-9.6924
				C847.2139,551.0391,849.4238,554.8291,849.6748,560.1582z M840.1357,560.7749c0.1787,4.3862,1.5068,6.605,3.3945,6.5161
				c1.999-0.0942,2.9385-2.5864,2.7344-6.916c-0.1982-4.1914-1.3145-6.6143-3.3682-6.5176
				C841.0645,553.9438,839.8945,556.2524,840.1357,560.7749z"/>
			<path fill="#CBB4B4" d="M858.1992,559.8672c-0.083-1.7764-0.207-3.2168-0.3232-4.4907l2.998-0.1416l0.2656,2.0737l0.0557-0.0024
				c0.9258-1.5737,2.4678-2.5093,4.5205-2.606c3.1094-0.1465,5.8164,2.396,6.0156,6.6147c0.2305,4.8853-2.7393,7.3896-5.8193,7.5352
				c-1.6934,0.0796-3.1436-0.5752-3.8877-1.625l-0.0557,0.0024l0.3301,6.9941l-3.4141,0.1611L858.1992,559.8672z M861.7725,563.0645
				c0.0156,0.333,0.0566,0.6372,0.1543,0.939c0.3994,1.3716,1.668,2.313,3.1113,2.2451c2.165-0.1021,3.3564-1.9668,3.2314-4.6313
				c-0.1133-2.3867-1.3701-4.2744-3.5635-4.1709c-1.416,0.0669-2.6719,1.1553-2.9336,2.6699
				c-0.0703,0.2813-0.1113,0.5889-0.0986,0.8667L861.7725,563.0645z"/>
			<path fill="#CBB4B4" d="M874.415,558.6294c-0.0742-1.5547-0.1641-2.8574-0.3018-4.019l2.9414-0.1387l0.2334,1.9912l0.084-0.0039
				c0.6162-1.0859,1.7783-2.3926,4.0537-2.5c1.7764-0.084,3.2119,0.8496,3.8652,2.3213l0.0557-0.0024
				c0.4375-0.7715,0.9658-1.353,1.585-1.7715c0.7246-0.563,1.5713-0.8813,2.6816-0.9336c2.249-0.106,4.5967,1.3135,4.8008,5.6431
				l0.376,7.9658l-3.3301,0.1572l-0.3525-7.4663c-0.1055-2.248-0.9463-3.5439-2.583-3.4668
				c-1.166,0.0552-1.9873,0.9282-2.3027,1.917c-0.0674,0.3369-0.1309,0.7573-0.1123,1.1455l0.3818,8.105l-3.3311,0.1572
				l-0.3691-7.8271c-0.0889-1.8872-0.9014-3.1846-2.4834-3.1099c-1.2773,0.0601-2.0898,1.1001-2.3506,2.0586
				c-0.123,0.3394-0.1602,0.7305-0.1416,1.1191l0.377,7.9937l-3.3301,0.1567L874.415,558.6294z"/>
		</g>
	</g>
</g>
</svg>
